<?xml version="1.0" standalone="no"?>
<!DOCTYPE svg PUBLIC "-//W3C//DTD SVG 20010904//EN"
 "http://www.w3.org/TR/2001/REC-SVG-20010904/DTD/svg10.dtd">
<svg version="1.0" xmlns="http://www.w3.org/2000/svg"
 width="604.000000pt" height="604.000000pt" viewBox="0 0 604.000000 604.000000"
 preserveAspectRatio="xMidYMid meet">
<metadata>
Created by potrace 1.14, written by Peter Selinger 2001-2017
</metadata>
<g transform="translate(0.000000,604.000000) scale(0.100000,-0.100000)"
fill="#000000" stroke="none">
<path d="M2858 5915 c-2 -2 -39 -6 -83 -10 -111 -9 -155 -15 -305 -46 -109
-23 -226 -55 -305 -85 -11 -4 -22 -8 -25 -9 -21 -5 -60 -19 -87 -31 -18 -8
-50 -21 -70 -30 -116 -49 -325 -160 -331 -176 -2 -4 -8 -8 -14 -8 -6 0 -26
-11 -44 -25 -18 -14 -35 -25 -39 -25 -3 0 -11 -4 -18 -10 -57 -47 -76 -60 -86
-60 -6 0 -11 -3 -11 -8 0 -4 -26 -27 -57 -52 -104 -80 -244 -215 -330 -318
-26 -31 -57 -66 -68 -78 -20 -20 -27 -29 -66 -91 -12 -18 -25 -33 -30 -33 -5
0 -9 -7 -9 -15 0 -8 -9 -24 -20 -35 -11 -11 -20 -25 -20 -31 0 -5 -4 -7 -10
-4 -6 3 -7 -1 -4 -9 4 -9 -1 -18 -10 -22 -9 -3 -14 -9 -11 -14 2 -4 -5 -17
-16 -28 -11 -12 -17 -22 -14 -22 4 0 -3 -12 -14 -26 -12 -15 -21 -32 -21 -39
0 -7 -7 -18 -15 -25 -8 -7 -13 -16 -10 -20 3 -4 -2 -13 -10 -20 -8 -7 -15 -16
-15 -20 0 -5 -17 -46 -38 -92 -35 -74 -52 -112 -57 -128 -9 -25 -19 -50 -33
-80 -8 -19 -15 -40 -14 -47 2 -6 -7 -35 -19 -65 -11 -29 -20 -54 -20 -55 5
-14 -1 -33 -8 -29 -5 4 -7 -2 -4 -12 2 -11 -2 -36 -11 -56 -8 -20 -11 -34 -6
-31 5 3 3 -13 -5 -36 -8 -22 -13 -45 -10 -49 3 -5 1 -11 -5 -15 -5 -3 -8 -19
-6 -36 2 -16 0 -31 -4 -34 -4 -2 -7 -21 -8 -42 -1 -21 -4 -49 -7 -63 -22 -103
-22 -535 0 -570 6 -10 3 -12 -11 -7 -17 6 -18 6 -2 -6 11 -9 14 -18 8 -27 -5
-8 -5 -19 0 -25 15 -19 22 -96 9 -111 -10 -12 -9 -13 5 -8 9 4 16 3 15 -2 -4
-15 13 -108 23 -128 7 -14 7 -16 -2 -11 -7 4 -5 -4 5 -18 15 -24 15 -26 -2
-30 -16 -4 -16 -5 -1 -6 11 -1 20 -12 24 -28 3 -16 8 -36 11 -47 4 -13 1 -17
-8 -12 -8 4 -6 1 4 -7 10 -8 19 -29 20 -46 1 -17 6 -31 10 -31 4 0 2 -10 -4
-22 -12 -22 -11 -22 6 -8 17 14 18 13 12 -2 -3 -9 -2 -18 3 -20 5 -2 11 -12
13 -23 2 -11 7 -28 12 -38 4 -10 2 -24 -6 -35 -12 -15 -12 -16 2 -4 14 10 18
10 23 -4 3 -8 6 -25 6 -35 0 -11 4 -17 10 -14 6 3 10 -2 10 -13 0 -10 3 -22 8
-26 4 -4 7 -11 7 -14 1 -4 8 -20 17 -37 8 -16 13 -36 10 -44 -3 -8 0 -11 7 -7
9 6 16 -8 9 -17 -2 -1 7 -13 20 -27 12 -13 22 -32 22 -42 0 -10 5 -18 11 -18
8 0 7 -6 -2 -17 -10 -11 -10 -14 -2 -9 8 4 13 2 13 -5 0 -7 3 -9 7 -6 3 4 12
-5 20 -19 11 -22 11 -30 1 -42 -11 -13 -11 -14 0 -8 15 9 45 -12 36 -25 -3 -5
0 -9 6 -9 6 0 8 -4 5 -10 -3 -5 0 -10 8 -10 21 0 38 -44 24 -59 -9 -9 -8 -11
4 -6 19 7 52 -32 42 -48 -3 -6 -1 -7 4 -4 6 4 18 -5 28 -19 17 -26 41 -57 62
-79 10 -11 10 -14 0 -18 -7 -3 -4 -6 6 -6 14 -1 17 -6 12 -23 -5 -18 -4 -20 4
-8 10 13 14 11 30 -10 11 -13 17 -29 14 -35 -4 -5 -3 -7 2 -3 13 12 186 -164
175 -177 -7 -8 -3 -11 12 -11 13 1 27 -8 34 -22 15 -30 27 -41 18 -17 -8 19
-7 19 10 2 9 -9 22 -17 28 -17 7 0 7 -4 -1 -13 -11 -14 -5 -27 13 -27 6 0 4 5
-4 10 -11 7 -12 10 -2 10 22 0 72 -59 66 -78 -5 -14 -4 -14 4 -2 6 8 8 19 4
25 -3 5 9 -2 27 -18 18 -15 37 -27 42 -27 5 0 9 -7 9 -15 0 -8 3 -15 8 -14 27
4 49 -15 49 -42 0 -35 17 -57 28 -38 5 8 4 10 -3 5 -7 -4 -12 -3 -12 3 0 5 -3
18 -7 28 -6 16 -5 16 10 4 9 -7 17 -10 17 -7 0 4 16 -5 35 -20 19 -14 35 -22
35 -18 0 5 4 2 9 -6 6 -8 7 -18 4 -23 -3 -5 -9 -3 -14 4 -6 10 -9 10 -9 2 0
-20 17 -24 34 -8 10 11 17 12 22 4 3 -6 0 -15 -7 -20 -7 -4 -10 -12 -5 -16 5
-4 11 -2 13 5 6 16 38 15 52 -2 7 -8 23 -17 37 -20 15 -4 24 -13 22 -23 -2 -9
4 -18 12 -20 12 -4 12 -3 1 5 -9 6 -10 12 -2 16 5 4 18 -1 28 -11 10 -10 23
-18 28 -19 23 -1 65 -17 65 -24 0 -17 -18 -20 -24 -4 -3 8 -10 13 -15 10 -5
-4 -12 -1 -14 4 -3 6 -4 5 -3 -2 2 -7 9 -12 15 -11 6 2 11 -4 11 -12 0 -18 5
-19 29 -3 21 13 56 4 45 -13 -4 -8 -9 -7 -15 2 -7 11 -9 11 -9 1 0 -7 -4 -10
-10 -7 -5 3 -10 1 -10 -5 0 -7 6 -10 14 -7 7 3 19 0 26 -6 7 -7 10 -7 8 -2 -3
6 1 16 10 24 13 13 14 12 8 -12 -4 -17 -2 -27 4 -27 6 0 8 5 4 11 -4 7 1 10
11 7 10 -1 20 -9 23 -17 3 -8 0 -11 -6 -7 -18 11 -26 -16 -9 -29 9 -7 13 -16
9 -20 -4 -5 -1 -5 7 0 12 7 11 10 -2 20 -18 13 -24 31 -8 20 16 -9 24 15 11
30 -8 10 -9 15 -2 15 6 0 14 -5 17 -10 4 -6 11 -8 16 -5 5 4 12 0 15 -9 3 -9
12 -12 21 -9 12 5 14 3 8 -6 -5 -10 -2 -11 14 -6 13 4 21 2 21 -5 0 -6 -5 -8
-12 -4 -7 4 -8 3 -4 -5 6 -9 11 -9 21 -1 8 7 20 8 26 4 9 -5 5 -10 -10 -16
-14 -5 -19 -12 -15 -20 5 -8 2 -9 -9 -5 -9 3 -19 2 -21 -2 -3 -5 3 -8 14 -7
11 0 20 5 19 10 0 9 43 35 50 30 2 -2 -2 -10 -8 -18 -9 -10 -9 -16 -1 -21 6
-4 14 -4 17 -1 4 3 1 6 -6 6 -7 0 -9 5 -6 10 4 6 11 7 17 4 7 -4 8 -2 4 4 -9
15 -7 15 42 -2 22 -8 43 -12 46 -9 3 4 6 1 6 -5 0 -6 9 -9 20 -7 11 2 19 -1
17 -8 -1 -6 7 -12 18 -14 16 -3 17 -2 5 6 -12 8 -10 10 8 8 15 -1 21 -6 17
-15 -3 -7 -5 -17 -5 -21 0 -4 -10 -7 -21 -7 -16 1 -23 -6 -25 -24 -3 -18 -2
-21 5 -10 5 8 7 18 4 24 -4 5 3 7 17 3 16 -4 23 -1 27 14 3 10 14 19 25 19 10
0 16 -4 13 -10 -3 -5 -1 -10 4 -10 6 0 11 5 11 10 0 6 4 10 10 10 16 0 7 -24
-15 -37 -25 -15 -11 -17 16 -2 11 5 17 14 14 19 -9 15 9 18 23 4 11 -12 10
-15 -2 -20 -20 -8 -21 -21 -2 -21 8 0 14 3 14 6 -1 3 2 14 7 24 7 17 8 17 28
0 11 -10 17 -12 13 -5 -10 17 19 15 34 -3 10 -12 10 -18 0 -30 -9 -10 -9 -15
-1 -15 10 0 12 4 15 40 1 8 8 13 16 11 18 -4 55 -10 93 -13 15 -1 27 -8 27
-16 0 -7 -4 -10 -10 -7 -5 3 -10 1 -10 -4 0 -18 20 -13 28 7 4 9 15 18 25 18
13 2 16 -3 12 -20 -6 -19 -5 -20 8 -4 20 25 30 22 17 -4 -11 -22 -11 -23 5 -3
13 16 28 20 80 20 36 0 65 -2 65 -4 0 -2 -8 -9 -17 -16 -14 -10 -20 -10 -31 1
-15 15 -32 10 -32 -9 0 -8 3 -7 9 2 7 11 10 10 18 -4 10 -16 12 -16 39 1 23
16 27 16 22 3 -10 -27 6 -41 21 -18 9 16 10 19 0 13 -9 -5 -10 -2 -6 10 4 10
7 21 7 24 1 4 7 -4 14 -17 11 -20 14 -21 19 -7 5 12 3 15 -6 10 -9 -5 -9 -4 0
6 11 12 15 11 28 -6 20 -26 19 -40 -2 -23 -15 13 -15 12 -2 -8 7 -12 15 -20
17 -18 9 9 10 55 1 49 -5 -3 -9 -1 -9 3 0 5 21 8 48 8 26 -1 59 2 74 6 17 5
29 3 32 -4 3 -8 7 -9 13 -2 4 6 24 11 43 12 52 4 125 11 125 13 0 1 10 3 23 6
12 2 22 -1 22 -6 0 -6 8 -10 18 -9 10 0 12 3 5 6 -7 2 -13 9 -13 14 0 6 4 8 9
5 5 -4 21 -2 35 4 17 6 26 6 26 0 0 -6 5 -10 11 -10 5 0 7 5 4 10 -5 8 27 15
38 8 1 -1 12 4 25 11 19 10 26 10 40 -1 9 -7 13 -8 9 -2 -4 7 0 15 9 18 22 8
24 8 21 -6 -1 -7 8 -14 21 -16 12 -2 20 -8 17 -13 -4 -5 -1 -9 5 -9 20 0 5 24
-18 30 -17 4 -19 8 -11 20 8 12 12 12 16 2 4 -10 8 -9 18 4 13 19 33 25 80 25
23 0 26 2 15 10 -13 9 -13 10 0 6 8 -2 26 1 40 9 25 12 107 44 115 44 2 0 1
-12 -1 -27 -3 -15 -3 -25 1 -22 3 4 8 17 10 29 2 12 6 24 7 25 28 17 148 68
161 67 9 0 15 3 12 8 -3 4 2 10 10 14 17 6 30 -10 15 -17 -6 -3 -5 -4 2 -3 7
2 12 11 10 20 -3 14 0 16 17 7 28 -15 38 -14 17 2 -17 12 -14 16 34 39 50 25
90 26 88 3 -1 -5 7 -11 18 -12 16 -2 16 -1 1 3 -9 3 -14 10 -11 15 3 6 -3 13
-15 16 -25 6 -18 23 10 23 14 0 18 4 13 13 -6 9 -4 9 8 -1 13 -10 18 -10 24
-1 4 8 3 9 -4 5 -7 -4 -12 -3 -12 2 0 5 16 17 35 28 19 10 35 23 35 29 0 5 4
3 10 -5 6 -9 5 -17 -3 -23 -8 -6 -8 -7 3 -4 9 2 14 13 12 25 -2 16 4 25 21 31
14 6 28 15 32 20 3 6 11 11 16 11 6 0 8 -4 5 -8 -2 -4 0 -14 5 -22 6 -11 8 -5
4 18 -3 19 -2 31 4 28 5 -3 12 1 15 10 6 15 9 14 34 -1 l27 -18 -19 22 c-19
21 -19 22 5 39 13 9 25 15 27 14 2 -2 12 6 21 17 10 11 21 18 25 14 3 -3 6 1
6 10 0 9 5 19 12 23 7 5 8 2 3 -7 -4 -8 3 -3 17 11 13 14 22 29 20 33 -2 5 5
4 16 -2 26 -14 43 -14 19 0 -17 10 -15 29 4 29 6 0 7 -5 3 -12 -4 -7 -3 -8 4
-4 6 4 9 13 5 21 -5 14 7 20 30 16 5 -1 6 3 2 9 -8 12 60 81 71 72 4 -4 4 2 0
13 -4 11 -4 16 0 12 4 -4 12 3 19 16 6 12 18 21 27 21 10 -1 14 4 11 13 -4 9
2 16 16 20 11 3 18 9 15 15 -8 13 16 39 29 31 5 -3 7 -1 4 4 -4 6 6 23 20 39
15 16 28 32 28 35 0 3 8 13 18 23 9 10 17 21 17 26 0 5 6 15 13 22 7 7 24 32
37 56 19 33 28 41 44 37 12 -3 15 -2 9 1 -16 7 -17 34 -2 34 5 0 7 5 4 10 -3
6 -2 10 3 10 5 0 15 14 22 30 7 17 17 30 23 30 6 0 8 3 4 6 -8 9 21 64 33 64
6 0 9 3 8 8 -6 16 34 102 44 96 7 -4 8 -2 4 4 -9 15 18 55 30 44 4 -4 3 0 -4
9 -15 20 -4 33 15 17 10 -8 17 -8 26 1 9 10 8 11 -5 6 -24 -9 -33 17 -17 47 7
13 14 25 14 28 2 11 27 86 35 105 11 25 29 86 35 114 2 11 6 25 9 29 5 8 13
42 23 94 3 15 8 26 12 24 3 -2 7 8 7 22 3 51 8 72 19 72 5 0 3 5 -5 10 -8 5
-10 10 -5 10 6 0 11 18 12 40 2 22 5 52 9 68 3 15 6 38 7 52 0 14 8 31 16 38
14 11 14 11 -1 6 -15 -5 -16 -2 -9 23 4 15 7 48 6 73 -1 25 1 49 4 55 7 13 5
215 -3 222 -3 3 -1 14 5 24 5 11 6 19 2 19 -4 0 -9 30 -11 68 -2 63 -9 127
-12 127 -1 0 -3 14 -5 31 -4 42 -19 127 -29 169 -6 23 -20 91 -21 105 -1 8 -5
23 -9 32 -4 9 -9 23 -10 32 -1 8 -5 19 -9 22 -4 4 -7 17 -7 29 0 12 -3 25 -7
29 -5 4 -8 11 -8 14 -1 4 -9 32 -20 62 -10 30 -20 60 -21 65 -2 12 -57 135
-85 188 -10 22 -19 45 -19 53 0 8 -3 14 -8 14 -4 0 -18 23 -30 51 -21 44 -52
98 -79 134 -5 6 -17 26 -28 45 -10 19 -33 53 -50 76 -16 23 -37 51 -45 63 -8
13 -22 31 -30 41 -8 10 -31 37 -50 60 -70 86 -170 192 -250 265 -80 73 -234
195 -247 195 -7 0 -13 4 -13 8 0 8 -102 79 -155 108 -11 6 -57 32 -102 57 -45
26 -84 47 -87 47 -2 0 -37 15 -78 34 -76 36 -172 75 -198 82 -8 2 -35 11 -60
20 -25 9 -52 17 -60 19 -8 2 -55 15 -105 28 -49 14 -110 28 -135 33 -25 4 -47
8 -50 9 -23 5 -111 19 -135 21 -16 2 -50 6 -75 9 -44 6 -417 14 -422 10z"/>
<path d="M395 3231 c-3 -5 -2 -12 3 -15 5 -3 9 1 9 9 0 17 -3 19 -12 6z"/>
<path d="M419 2968 c-5 -18 -6 -38 -1 -34 7 8 12 36 6 36 -2 0 -4 -1 -5 -2z"/>
<path d="M5615 2940 c3 -5 8 -10 11 -10 2 0 4 5 4 10 0 6 -5 10 -11 10 -5 0
-7 -4 -4 -10z"/>
<path d="M5615 2820 c-3 -5 -1 -10 4 -10 6 0 11 5 11 10 0 6 -2 10 -4 10 -3 0
-8 -4 -11 -10z"/>
<path d="M430 2780 c0 -5 5 -10 11 -10 5 0 7 5 4 10 -3 6 -8 10 -11 10 -2 0
-4 -4 -4 -10z"/>
<path d="M5545 2660 c-3 -6 1 -7 9 -4 18 7 21 14 7 14 -6 0 -13 -4 -16 -10z"/>
<path d="M5630 2636 c0 -2 8 -10 18 -17 15 -13 16 -12 3 4 -13 16 -21 21 -21
13z"/>
<path d="M460 2566 c0 -2 8 -10 18 -17 15 -13 16 -12 3 4 -13 16 -21 21 -21
13z"/>
<path d="M5510 2536 c0 -2 8 -10 18 -17 15 -13 16 -12 3 4 -13 16 -21 21 -21
13z"/>
<path d="M495 2460 c3 -5 8 -10 11 -10 2 0 4 5 4 10 0 6 -5 10 -11 10 -5 0 -7
-4 -4 -10z"/>
<path d="M5496 2447 c3 -10 9 -15 12 -12 3 3 0 11 -7 18 -10 9 -11 8 -5 -6z"/>
<path d="M499 2428 c-5 -18 -6 -38 -1 -34 7 8 12 36 6 36 -2 0 -4 -1 -5 -2z"/>
<path d="M5593 2395 c0 -8 4 -12 9 -9 5 3 6 10 3 15 -9 13 -12 11 -12 -6z"/>
<path d="M5490 2379 c0 -5 5 -7 10 -4 6 3 10 8 10 11 0 2 -4 4 -10 4 -5 0 -10
-5 -10 -11z"/>
<path d="M537 2315 c-4 -8 -3 -16 1 -19 4 -3 9 4 9 15 2 23 -3 25 -10 4z"/>
<path d="M565 2319 c-3 -4 2 -6 10 -5 21 3 28 13 10 13 -9 0 -18 -4 -20 -8z"/>
<path d="M5477 2293 c-10 -9 -9 -23 1 -23 5 0 9 7 9 15 0 17 -1 18 -10 8z"/>
<path d="M5430 2256 c0 -2 8 -10 18 -17 15 -13 16 -12 3 4 -13 16 -21 21 -21
13z"/>
<path d="M587 2237 c3 -4 8 -6 11 -3 3 3 10 1 17 -4 8 -7 12 -6 12 3 0 7 -11
13 -23 13 -12 0 -20 -4 -17 -9z"/>
<path d="M5427 2219 c7 -7 15 -10 18 -7 3 3 -2 9 -12 12 -14 6 -15 5 -6 -5z"/>
<path d="M575 2180 c3 -5 8 -10 11 -10 2 0 4 5 4 10 0 6 -5 10 -11 10 -5 0 -7
-4 -4 -10z"/>
<path d="M5371 2187 c2 -1 13 -9 24 -17 19 -14 19 -14 6 3 -7 9 -18 17 -24 17
-6 0 -8 -1 -6 -3z"/>
<path d="M5386 2139 c2 -4 13 -7 24 -6 23 2 17 10 -10 12 -10 1 -17 -2 -14 -6z"/>
<path d="M5355 2120 c3 -5 8 -10 11 -10 2 0 4 5 4 10 0 6 -5 10 -11 10 -5 0
-7 -4 -4 -10z"/>
<path d="M674 2094 c1 -8 4 -15 7 -16 2 -2 3 -1 2 1 -2 2 2 9 7 16 7 8 5 12
-4 12 -8 0 -13 -6 -12 -13z"/>
<path d="M605 2000 c-3 -6 1 -7 9 -4 18 7 21 14 7 14 -6 0 -13 -4 -16 -10z"/>
<path d="M5280 1980 c-9 -6 -10 -10 -3 -10 6 0 15 5 18 10 8 12 4 12 -15 0z"/>
<path d="M5366 1978 c3 -5 10 -6 15 -3 13 9 11 12 -6 12 -8 0 -12 -4 -9 -9z"/>
<path d="M635 1940 c-3 -5 -1 -10 4 -10 6 0 11 5 11 10 0 6 -2 10 -4 10 -3 0
-8 -4 -11 -10z"/>
<path d="M5376 1938 c3 -5 10 -6 15 -3 13 9 11 12 -6 12 -8 0 -12 -4 -9 -9z"/>
<path d="M5313 1925 c0 -8 4 -12 9 -9 5 3 6 10 3 15 -9 13 -12 11 -12 -6z"/>
<path d="M751 1927 c2 -1 13 -9 24 -17 19 -14 19 -14 6 3 -7 9 -18 17 -24 17
-6 0 -8 -1 -6 -3z"/>
<path d="M5279 1913 c-13 -16 -12 -17 4 -4 16 13 21 21 13 21 -2 0 -10 -8 -17
-17z"/>
<path d="M5350 1920 c0 -5 5 -10 11 -10 5 0 7 5 4 10 -3 6 -8 10 -11 10 -2 0
-4 -4 -4 -10z"/>
<path d="M5212 1891 c-11 -7 -11 -9 0 -14 9 -3 15 1 15 9 0 8 -1 14 -1 14 -1
0 -7 -4 -14 -9z"/>
<path d="M793 1875 c0 -8 4 -12 9 -9 4 3 8 9 8 15 0 5 -4 9 -8 9 -5 0 -9 -7
-9 -15z"/>
<path d="M5256 1873 c-6 -14 -5 -15 5 -6 7 7 10 15 7 18 -3 3 -9 -2 -12 -12z"/>
<path d="M835 1861 c-3 -5 -2 -12 3 -15 5 -3 9 1 9 9 0 17 -3 19 -12 6z"/>
<path d="M5209 1843 c-13 -16 -12 -17 4 -4 16 13 21 21 13 21 -2 0 -10 -8 -17
-17z"/>
<path d="M5264 1842 c4 -3 14 -7 22 -8 9 -1 13 0 10 4 -4 3 -14 7 -22 8 -9 1
-13 0 -10 -4z"/>
<path d="M5229 1823 c-13 -16 -12 -17 4 -4 16 13 21 21 13 21 -2 0 -10 -8 -17
-17z"/>
<path d="M730 1819 c0 -5 5 -7 10 -4 6 3 10 8 10 11 0 2 -4 4 -10 4 -5 0 -10
-5 -10 -11z"/>
<path d="M833 1812 c0 -12 3 -19 6 -17 2 3 11 -1 20 -7 10 -8 8 -3 -4 12 -11
14 -21 27 -22 29 -1 2 -1 -6 0 -17z"/>
<path d="M5150 1803 c0 -6 8 -17 18 -24 16 -13 16 -13 2 6 -8 11 -16 22 -17
24 -2 2 -3 0 -3 -6z"/>
<path d="M5236 1793 c-6 -14 -5 -15 5 -6 7 7 10 15 7 18 -3 3 -9 -2 -12 -12z"/>
<path d="M5270 1799 c0 -5 5 -7 10 -4 6 3 10 8 10 11 0 2 -4 4 -10 4 -5 0 -10
-5 -10 -11z"/>
<path d="M775 1780 c3 -5 8 -10 11 -10 2 0 4 5 4 10 0 6 -5 10 -11 10 -5 0 -7
-4 -4 -10z"/>
<path d="M5200 1780 c-9 -6 -10 -10 -3 -10 6 0 15 5 18 10 8 12 4 12 -15 0z"/>
<path d="M882 1756 c7 -8 15 -12 17 -11 5 6 -10 25 -20 25 -5 0 -4 -6 3 -14z"/>
<path d="M5159 1733 c-13 -16 -12 -17 4 -4 16 13 21 21 13 21 -2 0 -10 -8 -17
-17z"/>
<path d="M886 1721 c-3 -5 1 -11 9 -14 9 -4 12 -1 8 9 -6 16 -10 17 -17 5z"/>
<path d="M5105 1719 c-3 -4 2 -6 10 -5 21 3 28 13 10 13 -9 0 -18 -4 -20 -8z"/>
<path d="M815 1700 c3 -5 8 -10 11 -10 2 0 4 5 4 10 0 6 -5 10 -11 10 -5 0 -7
-4 -4 -10z"/>
<path d="M956 1698 c5 -7 2 -9 -8 -6 -8 4 -15 1 -15 -5 0 -7 10 -12 23 -12 18
0 20 3 13 18 -5 9 -12 17 -15 17 -3 0 -2 -5 2 -12z"/>
<path d="M5079 1708 c-5 -18 -6 -39 -2 -34 4 3 11 2 17 -4 8 -6 12 -3 12 9 0
12 -5 17 -15 13 -9 -3 -12 -1 -7 6 4 7 5 12 2 12 -3 0 -6 -1 -7 -2z"/>
<path d="M873 1685 c0 -8 4 -12 9 -9 5 3 6 10 3 15 -9 13 -12 11 -12 -6z"/>
<path d="M5150 1660 c0 -5 5 -10 11 -10 5 0 7 5 4 10 -3 6 -8 10 -11 10 -2 0
-4 -4 -4 -10z"/>
<path d="M5035 1650 c3 -5 8 -10 11 -10 2 0 4 5 4 10 0 6 -5 10 -11 10 -5 0
-7 -4 -4 -10z"/>
<path d="M962 1641 c-10 -6 -10 -10 3 -21 13 -11 14 -10 9 5 -6 14 -4 16 6 10
9 -5 11 -4 6 3 -8 14 -7 14 -24 3z"/>
<path d="M833 1615 c0 -8 4 -12 9 -9 5 3 6 10 3 15 -9 13 -12 11 -12 -6z"/>
<path d="M5080 1615 c-7 -9 -11 -17 -9 -20 3 -2 10 5 17 15 14 24 10 26 -8 5z"/>
<path d="M5113 1615 c0 -8 4 -12 9 -9 5 3 6 10 3 15 -9 13 -12 11 -12 -6z"/>
<path d="M934 1600 c0 -13 4 -16 10 -10 7 7 7 13 0 20 -6 6 -10 3 -10 -10z"/>
<path d="M5013 1605 c-3 -9 -3 -18 -1 -21 3 -3 8 4 11 16 6 23 -1 27 -10 5z"/>
<path d="M5093 1585 c0 -8 4 -12 9 -9 5 3 6 10 3 15 -9 13 -12 11 -12 -6z"/>
<path d="M4973 1583 c4 -6 2 -13 -5 -15 -8 -3 -6 -6 4 -10 17 -7 19 15 3 29
-4 4 -5 3 -2 -4z"/>
<path d="M969 1563 c-13 -16 -12 -17 4 -4 9 7 17 15 17 17 0 8 -8 3 -21 -13z"/>
<path d="M1027 1559 c7 -7 15 -10 18 -7 3 3 -2 9 -12 12 -14 6 -15 5 -6 -5z"/>
<path d="M5286 1558 c3 -5 10 -6 15 -3 13 9 11 12 -6 12 -8 0 -12 -4 -9 -9z"/>
<path d="M4959 1548 c-5 -18 -6 -38 -1 -34 7 8 12 36 6 36 -2 0 -4 -1 -5 -2z"/>
<path d="M4977 1521 c-4 -17 -3 -21 5 -13 5 5 8 16 6 23 -3 8 -7 3 -11 -10z"/>
<path d="M1055 1510 c-3 -6 1 -7 9 -4 18 7 21 14 7 14 -6 0 -13 -4 -16 -10z"/>
<path d="M995 1500 c-3 -5 -1 -10 4 -10 6 0 11 5 11 10 0 6 -2 10 -4 10 -3 0
-8 -4 -11 -10z"/>
<path d="M5074 1502 c4 -3 14 -7 22 -8 9 -1 13 0 10 4 -4 3 -14 7 -22 8 -9 1
-13 0 -10 -4z"/>
<path d="M1075 1490 c-4 -6 -10 -8 -15 -5 -5 3 -11 1 -14 -4 -8 -13 22 -7 36
7 7 7 9 12 6 12 -4 0 -10 -5 -13 -10z"/>
<path d="M4920 1491 c0 -6 4 -13 10 -16 6 -3 7 1 4 9 -7 18 -14 21 -14 7z"/>
<path d="M1162 1467 c10 -8 15 -17 12 -20 -4 -3 5 -12 19 -18 15 -7 24 -16 20
-22 -4 -6 -1 -7 7 -2 10 6 9 11 -5 22 -11 7 -23 13 -28 13 -4 0 -6 4 -2 9 3 6
-5 15 -17 21 -21 10 -21 10 -6 -3z"/>
<path d="M1121 1456 c-9 -10 -8 -15 3 -19 11 -4 13 -1 9 10 -5 12 -3 14 7 8 9
-5 11 -4 6 3 -9 15 -11 15 -25 -2z"/>
<path d="M4957 1457 c4 -7 -1 -8 -13 -3 -15 6 -17 5 -6 -5 10 -11 15 -10 28 2
13 14 13 16 0 16 -8 0 -12 -5 -9 -10z"/>
<path d="M1013 1425 c0 -8 4 -12 9 -9 5 3 6 10 3 15 -9 13 -12 11 -12 -6z"/>
<path d="M4870 1429 c0 -5 -6 -7 -12 -3 -7 4 -10 3 -5 -1 13 -15 46 -13 40 2
-6 16 -23 17 -23 2z"/>
<path d="M4913 1427 c0 -8 6 -14 14 -14 9 0 10 4 2 14 -6 7 -12 13 -14 13 -1
0 -2 -6 -2 -13z"/>
<path d="M1106 1422 c-3 -5 1 -9 9 -9 8 0 12 4 9 9 -3 4 -7 8 -9 8 -2 0 -6 -4
-9 -8z"/>
<path d="M4959 1428 c-5 -18 -6 -38 -1 -34 7 8 12 36 6 36 -2 0 -4 -1 -5 -2z"/>
<path d="M1175 1390 c-3 -6 1 -7 9 -4 18 7 21 14 7 14 -6 0 -13 -4 -16 -10z"/>
<path d="M1119 1373 c-13 -16 -12 -17 4 -4 9 7 17 15 17 17 0 8 -8 3 -21 -13z"/>
<path d="M4841 1381 c-8 -5 -9 -11 -3 -15 5 -3 12 1 16 9 6 17 6 18 -13 6z"/>
<path d="M4894 1369 c-3 -6 -2 -15 3 -20 5 -5 9 -1 9 11 0 23 -2 24 -12 9z"/>
<path d="M1155 1362 c3 -3 -1 -12 -7 -21 -8 -10 -4 -9 10 3 26 23 26 23 7 23
-8 0 -13 -3 -10 -5z"/>
<path d="M4779 1359 c-12 -9 -12 -10 1 -6 8 2 23 0 33 -5 9 -5 17 -6 17 -4 0
13 -37 24 -51 15z"/>
<path d="M1235 1350 c-4 -6 1 -7 11 -3 13 5 15 3 9 -7 -5 -9 -4 -11 4 -6 6 4
9 12 6 17 -8 12 -22 12 -30 -1z"/>
<path d="M1204 1336 c-3 -8 -15 -13 -26 -11 -11 3 -18 1 -14 -2 14 -14 37 -10
46 8 6 10 8 19 5 19 -3 0 -8 -6 -11 -14z"/>
<path d="M4751 1331 c-7 -5 -12 -14 -10 -20 2 -6 10 -2 17 9 14 22 13 23 -7
11z"/>
<path d="M4795 1333 c3 -3 -3 -12 -13 -20 -16 -12 -16 -13 2 -6 12 4 17 3 13
-4 -3 -5 0 -10 8 -10 12 0 12 3 2 15 -6 8 -10 17 -9 19 2 3 1 7 -2 9 -3 2 -4
1 -1 -3z"/>
<path d="M1305 1317 c-15 -12 -16 -15 -4 -22 8 -5 11 -5 7 0 -4 4 0 14 10 21
23 18 11 18 -13 1z"/>
<path d="M4824 1322 c4 -3 14 -7 22 -8 9 -1 13 0 10 4 -4 3 -14 7 -22 8 -9 1
-13 0 -10 -4z"/>
<path d="M1231 1307 c-8 -10 -7 -14 4 -14 8 0 11 5 8 10 -4 6 1 8 11 4 10 -4
15 -3 11 3 -8 14 -20 12 -34 -3z"/>
<path d="M1073 1295 c0 -8 4 -12 9 -9 5 3 6 10 3 15 -9 13 -12 11 -12 -6z"/>
<path d="M4706 1302 c-3 -5 1 -9 9 -9 8 0 15 4 15 9 0 4 -4 8 -9 8 -6 0 -12
-4 -15 -8z"/>
<path d="M1195 1290 c-4 -6 -11 -7 -17 -4 -7 4 -8 2 -4 -5 6 -9 11 -9 22 0 14
11 18 19 10 19 -3 0 -8 -5 -11 -10z"/>
<path d="M1270 1286 c0 -2 7 -7 16 -10 8 -3 12 -2 9 4 -6 10 -25 14 -25 6z"/>
<path d="M4660 1275 c-10 -12 -9 -16 4 -21 9 -3 14 -10 11 -14 -3 -5 -1 -11 4
-14 5 -4 8 1 7 10 -1 8 -8 19 -15 24 -10 6 -9 10 5 19 11 6 14 11 8 11 -6 0
-17 -7 -24 -15z"/>
<path d="M4760 1286 c0 -2 8 -10 18 -17 15 -13 16 -12 3 4 -13 16 -21 21 -21
13z"/>
<path d="M1358 1273 c7 -3 16 -2 19 1 4 3 -2 6 -13 5 -11 0 -14 -3 -6 -6z"/>
<path d="M4710 1271 c0 -7 -5 -9 -12 -5 -7 5 -8 3 -3 -5 5 -9 10 -10 18 -2 6
6 8 14 4 18 -4 3 -7 1 -7 -6z"/>
<path d="M1230 1256 c7 -7 13 -7 20 0 6 6 3 10 -10 10 -13 0 -16 -4 -10 -10z"/>
<path d="M1316 1258 c5 -7 2 -9 -8 -6 -8 4 -15 0 -15 -7 0 -10 5 -11 19 -4 16
9 17 29 2 29 -3 0 -2 -5 2 -12z"/>
<path d="M4896 1258 c3 -4 11 -5 19 -1 21 7 19 12 -4 10 -11 0 -18 -5 -15 -9z"/>
<path d="M1372 1236 c7 -8 15 -12 17 -11 5 6 -10 25 -20 25 -5 0 -4 -6 3 -14z"/>
<path d="M4726 1239 c4 -8 30 -6 38 2 3 3 -5 5 -19 5 -13 0 -22 -3 -19 -7z"/>
<path d="M1300 1220 c-9 -6 -10 -10 -3 -10 6 0 15 5 18 10 8 12 4 12 -15 0z"/>
<path d="M1356 1213 c-6 -14 -5 -15 5 -6 7 7 10 15 7 18 -3 3 -9 -2 -12 -12z"/>
<path d="M1430 1219 c0 -5 5 -7 10 -4 6 3 10 8 10 11 0 2 -4 4 -10 4 -5 0 -10
-5 -10 -11z"/>
<path d="M1150 1216 c0 -2 8 -10 18 -17 15 -13 16 -12 3 4 -13 16 -21 21 -21
13z"/>
<path d="M4626 1204 c-3 -9 -2 -12 5 -9 5 4 17 1 26 -7 15 -12 15 -11 2 10
-16 26 -25 28 -33 6z"/>
<path d="M1113 1195 c0 -8 4 -12 9 -9 5 3 6 10 3 15 -9 13 -12 11 -12 -6z"/>
<path d="M1407 1199 c7 -7 15 -10 18 -7 3 3 -2 9 -12 12 -14 6 -15 5 -6 -5z"/>
<path d="M1445 1200 c-3 -6 1 -7 9 -4 18 7 21 14 7 14 -6 0 -13 -4 -16 -10z"/>
<path d="M4693 1193 c0 -9 4 -10 14 -2 7 6 13 12 13 14 0 1 -6 2 -13 2 -8 0
-14 -6 -14 -14z"/>
<path d="M1313 1183 c4 -3 1 -13 -6 -22 -11 -14 -10 -14 5 -2 16 12 16 31 1
31 -4 0 -3 -3 0 -7z"/>
<path d="M1456 1182 c-2 -4 0 -14 6 -22 8 -12 9 -11 4 4 -5 13 -2 17 9 12 8
-3 15 -1 15 4 0 12 -27 13 -34 2z"/>
<path d="M4550 1180 c0 -5 5 -10 10 -10 6 0 10 5 10 10 0 6 -4 10 -10 10 -5 0
-10 -4 -10 -10z"/>
<path d="M4526 1165 c-3 -8 -1 -15 5 -15 6 0 7 -5 3 -12 -4 -6 -3 -8 4 -5 5 4
8 16 5 27 -6 24 -9 25 -17 5z"/>
<path d="M1520 1160 c0 -5 5 -10 11 -10 5 0 7 5 4 10 -3 6 -8 10 -11 10 -2 0
-4 -4 -4 -10z"/>
<path d="M4577 1156 c-4 -11 -1 -13 10 -9 10 4 14 2 10 -4 -3 -5 0 -10 8 -10
13 0 12 4 -2 19 -19 22 -19 22 -26 4z"/>
<path d="M4774 1156 c1 -8 5 -18 8 -22 4 -3 5 1 4 10 -1 8 -5 18 -8 22 -4 3
-5 -1 -4 -10z"/>
<path d="M1360 1140 c-9 -6 -10 -10 -3 -10 6 0 15 5 18 10 8 12 4 12 -15 0z"/>
<path d="M1393 1127 c-1 -11 -1 -18 0 -16 2 2 8 11 15 20 9 12 9 16 -1 16 -7
0 -14 -9 -14 -20z"/>
<path d="M1495 1139 c-4 -6 -5 -12 -2 -15 2 -3 7 2 10 11 7 17 1 20 -8 4z"/>
<path d="M1460 1131 c0 -6 4 -13 10 -16 6 -3 7 1 4 9 -7 18 -14 21 -14 7z"/>
<path d="M1419 1113 c-13 -17 -13 -17 6 -3 11 8 22 16 24 17 2 2 0 3 -6 3 -6
0 -17 -8 -24 -17z"/>
<path d="M1521 1108 c9 -16 29 -17 29 -2 0 3 -5 2 -12 -2 -7 -5 -9 -2 -6 8 4
8 0 15 -7 15 -10 0 -11 -5 -4 -19z"/>
<path d="M4441 1114 c0 -11 3 -14 6 -6 3 7 2 16 -1 19 -3 4 -6 -2 -5 -13z"/>
<path d="M4500 1120 c-9 -6 -10 -10 -3 -10 6 0 15 5 18 10 8 12 4 12 -15 0z"/>
<path d="M4546 1122 c-3 -5 1 -9 9 -9 8 0 15 4 15 9 0 4 -4 8 -9 8 -6 0 -12
-4 -15 -8z"/>
<path d="M4589 1103 c-13 -16 -12 -17 4 -4 9 7 17 15 17 17 0 8 -8 3 -21 -13z"/>
<path d="M4516 1102 c-2 -4 -1 -14 3 -20 6 -10 11 -9 21 3 11 13 10 14 -5 9
-13 -5 -16 -4 -11 4 4 7 5 12 2 12 -3 0 -7 -4 -10 -8z"/>
<path d="M1590 1080 c0 -6 7 -10 15 -10 8 0 15 2 15 4 0 2 -7 6 -15 10 -8 3
-15 1 -15 -4z"/>
<path d="M4450 1080 c0 -5 5 -10 10 -10 6 0 10 5 10 10 0 6 -4 10 -10 10 -5 0
-10 -4 -10 -10z"/>
<path d="M4615 1080 c3 -5 8 -10 11 -10 2 0 4 5 4 10 0 6 -5 10 -11 10 -5 0
-7 -4 -4 -10z"/>
<path d="M1370 1059 c0 -5 5 -7 10 -4 6 3 10 8 10 11 0 2 -4 4 -10 4 -5 0 -10
-5 -10 -11z"/>
<path d="M1479 1053 c-13 -16 -12 -17 4 -4 16 13 21 21 13 21 -2 0 -10 -8 -17
-17z"/>
<path d="M1559 1068 c-5 -15 -4 -66 1 -63 4 3 7 15 6 27 -1 13 3 26 9 30 6 5
6 8 -2 8 -7 0 -13 -1 -14 -2z"/>
<path d="M1630 1063 c0 -6 8 -17 18 -24 16 -13 16 -13 2 6 -8 11 -16 22 -17
24 -2 2 -3 0 -3 -6z"/>
<path d="M4415 1059 c-6 -8 -4 -10 5 -4 9 5 10 1 6 -16 -6 -21 -6 -22 5 -6 7
13 8 22 1 29 -6 6 -12 6 -17 -3z"/>
<path d="M4474 1045 c1 -8 8 -21 16 -28 12 -10 12 -9 2 4 -6 9 -9 18 -6 21 3
3 1 9 -4 12 -6 3 -9 -1 -8 -9z"/>
<path d="M1453 1031 c0 -11 5 -18 9 -15 4 3 5 11 1 19 -7 21 -12 19 -10 -4z"/>
<path d="M1499 1033 c-13 -16 -12 -17 4 -4 16 13 21 21 13 21 -2 0 -10 -8 -17
-17z"/>
<path d="M4336 1035 c4 -8 8 -15 10 -15 2 0 4 7 4 15 0 8 -4 15 -10 15 -5 0
-7 -7 -4 -15z"/>
<path d="M4675 1041 c-3 -5 -2 -12 3 -15 5 -3 9 1 9 9 0 17 -3 19 -12 6z"/>
<path d="M1592 1027 c-8 -10 -6 -13 11 -14 12 0 16 1 9 4 -6 3 -10 9 -6 14 8
14 -2 11 -14 -4z"/>
<path d="M1667 1026 c-4 -10 -3 -15 3 -11 6 3 10 1 10 -6 0 -7 3 -10 6 -6 3 3
2 13 -4 22 -8 16 -9 16 -15 1z"/>
<path d="M1740 1031 c0 -7 -4 -10 -9 -6 -15 9 -25 -15 -12 -28 9 -9 10 -7 5 7
-5 13 -4 17 4 12 12 -7 28 12 18 21 -3 4 -6 1 -6 -6z"/>
<path d="M4297 1034 c-4 -4 -4 -11 -1 -15 7 -12 34 -11 34 1 0 5 -7 6 -17 3
-11 -4 -14 -3 -9 5 8 13 3 16 -7 6z"/>
<path d="M1633 1005 c0 -8 4 -15 9 -15 4 0 8 4 8 9 0 6 -4 12 -8 15 -5 3 -9
-1 -9 -9z"/>
<path d="M1753 1008 c-15 -20 -25 -38 -20 -38 3 0 12 11 21 25 17 26 16 35 -1
13z"/>
<path d="M4276 1005 c10 -8 23 -15 28 -15 6 0 1 7 -10 15 -10 8 -23 15 -28 15
-6 0 -1 -7 10 -15z"/>
<path d="M1780 1000 c0 -5 5 -10 10 -10 6 0 10 5 10 10 0 6 -4 10 -10 10 -5 0
-10 -4 -10 -10z"/>
<path d="M4350 999 c0 -5 5 -7 10 -4 6 3 10 8 10 11 0 2 -4 4 -10 4 -5 0 -10
-5 -10 -11z"/>
<path d="M4414 998 c-4 -7 -3 -10 1 -5 5 4 18 -1 29 -10 21 -18 21 -18 2 5
-22 26 -23 26 -32 10z"/>
<path d="M1751 967 c-13 -21 -12 -21 5 -5 10 10 16 20 13 22 -3 3 -11 -5 -18
-17z"/>
<path d="M4226 964 c-11 -8 -16 -14 -10 -14 13 0 39 18 34 24 -3 2 -14 -2 -24
-10z"/>
<path d="M4273 965 c0 -8 4 -12 9 -9 4 3 8 9 8 15 0 5 -4 9 -8 9 -5 0 -9 -7
-9 -15z"/>
<path d="M4410 976 c0 -2 8 -10 18 -17 15 -13 16 -12 3 4 -13 16 -21 21 -21
13z"/>
<path d="M4595 969 c-4 -6 -5 -12 -2 -15 2 -3 7 2 10 11 7 17 1 20 -8 4z"/>
<path d="M1680 960 c-9 -6 -10 -10 -3 -10 6 0 15 5 18 10 8 12 4 12 -15 0z"/>
<path d="M1780 966 c0 -2 9 -6 20 -9 11 -3 18 -1 14 4 -5 9 -34 13 -34 5z"/>
<path d="M4390 960 c0 -5 5 -10 11 -10 5 0 7 5 4 10 -3 6 -8 10 -11 10 -2 0
-4 -4 -4 -10z"/>
<path d="M1838 953 c7 -3 16 -2 19 1 4 3 -2 6 -13 5 -11 0 -14 -3 -6 -6z"/>
<path d="M4140 949 c0 -5 -4 -7 -10 -4 -5 3 -15 -4 -21 -17 -6 -13 -19 -25
-30 -25 -12 -1 -17 3 -13 9 4 7 2 8 -5 4 -17 -11 -3 -26 21 -23 11 2 26 14 33
28 8 13 17 23 21 21 5 -2 10 1 12 7 2 6 1 11 -2 11 -3 0 -6 -5 -6 -11z"/>
<path d="M4295 950 c-3 -6 1 -7 9 -4 18 7 21 14 7 14 -6 0 -13 -4 -16 -10z"/>
<path d="M1715 930 c18 -20 45 -22 38 -2 -5 11 -7 11 -14 0 -8 -11 -13 -5 -11
13 1 3 -6 6 -14 6 -12 0 -12 -3 1 -17z"/>
<path d="M1876 930 c8 -33 20 -45 29 -28 5 7 4 10 0 5 -5 -4 -15 5 -22 20 -12
26 -12 26 -7 3z"/>
<path d="M4153 931 c-9 -15 -9 -20 0 -24 7 -3 13 5 13 19 2 29 2 29 -13 5z"/>
<path d="M4440 940 c-9 -6 -10 -10 -3 -10 6 0 15 5 18 10 8 12 4 12 -15 0z"/>
<path d="M4490 940 c0 -5 5 -10 11 -10 5 0 7 5 4 10 -3 6 -8 10 -11 10 -2 0
-4 -4 -4 -10z"/>
<path d="M1653 925 c0 -8 4 -12 9 -9 5 3 6 10 3 15 -9 13 -12 11 -12 -6z"/>
<path d="M4192 932 c-9 -6 -5 -12 15 -20 24 -11 26 -10 11 1 -10 8 -15 17 -11
20 9 9 1 8 -15 -1z"/>
<path d="M4273 925 c0 -8 4 -12 9 -9 5 3 6 10 3 15 -9 13 -12 11 -12 -6z"/>
<path d="M1686 922 c-3 -5 1 -9 9 -9 8 0 12 4 9 9 -3 4 -7 8 -9 8 -2 0 -6 -4
-9 -8z"/>
<path d="M1840 919 c0 -5 5 -7 10 -4 6 3 10 8 10 11 0 2 -4 4 -10 4 -5 0 -10
-5 -10 -11z"/>
<path d="M1570 899 c0 -5 5 -7 10 -4 6 3 10 8 10 11 0 2 -4 4 -10 4 -5 0 -10
-5 -10 -11z"/>
<path d="M1615 900 c3 -5 8 -10 11 -10 2 0 4 5 4 10 0 6 -5 10 -11 10 -5 0 -7
-4 -4 -10z"/>
<path d="M4108 888 c-10 -10 -14 -18 -9 -18 10 0 36 29 30 34 -2 1 -12 -6 -21
-16z"/>
<path d="M1808 892 c-17 -7 -17 -8 0 -18 15 -10 18 -8 18 7 0 11 0 19 -1 18 0
0 -8 -4 -17 -7z"/>
<path d="M4253 886 c0 -11 33 -16 39 -5 2 2 1 3 -1 2 -2 -1 -11 2 -21 7 -12 6
-17 5 -17 -4z"/>
<path d="M1510 886 c0 -2 7 -7 16 -10 8 -3 12 -2 9 4 -6 10 -25 14 -25 6z"/>
<path d="M1856 874 c-5 -14 -4 -15 9 -4 17 14 19 20 6 20 -5 0 -12 -7 -15 -16z"/>
<path d="M1900 880 c-18 -12 -2 -12 25 0 13 6 15 9 5 9 -8 0 -22 -4 -30 -9z"/>
<path d="M4028 883 c7 -3 16 -2 19 1 4 3 -2 6 -13 5 -11 0 -14 -3 -6 -6z"/>
<path d="M4135 880 c-3 -6 1 -7 9 -4 18 7 21 14 7 14 -6 0 -13 -4 -16 -10z"/>
<path d="M4170 880 c0 -5 5 -10 10 -10 6 0 10 5 10 10 0 6 -4 10 -10 10 -5 0
-10 -4 -10 -10z"/>
<path d="M4320 880 c-9 -6 -10 -10 -3 -10 6 0 15 5 18 10 8 12 4 12 -15 0z"/>
<path d="M2081 857 c-13 -21 -12 -21 5 -5 10 10 16 20 13 22 -3 3 -11 -5 -18
-17z"/>
<path d="M3958 873 c7 -3 16 -2 19 1 4 3 -2 6 -13 5 -11 0 -14 -3 -6 -6z"/>
<path d="M1615 859 c-3 -4 2 -6 10 -5 21 3 28 13 10 13 -9 0 -18 -4 -20 -8z"/>
<path d="M1759 853 c-13 -16 -12 -17 4 -4 16 13 21 21 13 21 -2 0 -10 -8 -17
-17z"/>
<path d="M3930 860 c0 -5 5 -10 11 -10 5 0 7 5 4 10 -3 6 -8 10 -11 10 -2 0
-4 -4 -4 -10z"/>
<path d="M4013 857 c-3 -5 0 -14 6 -20 9 -9 10 -7 5 7 -4 12 -4 17 2 13 6 -3
16 -2 24 3 11 7 9 9 -8 7 -13 -1 -26 -5 -29 -10z"/>
<path d="M2000 850 c0 -5 -7 -7 -15 -4 -8 4 -15 1 -15 -7 0 -7 3 -9 7 -6 3 4
11 3 17 -3 8 -6 12 -3 13 11 1 10 0 19 -3 19 -2 0 -4 -4 -4 -10z"/>
<path d="M3893 847 c-4 -8 -17 -17 -27 -20 -10 -4 -16 -10 -13 -13 3 -3 18 1
34 10 15 8 24 15 18 16 -5 0 -3 5 5 10 9 6 10 10 3 10 -7 0 -16 -6 -20 -13z"/>
<path d="M4253 845 c0 -8 4 -12 9 -9 5 3 6 10 3 15 -9 13 -12 11 -12 -6z"/>
<path d="M4356 847 c3 -10 9 -15 12 -12 3 3 0 11 -7 18 -10 9 -11 8 -5 -6z"/>
<path d="M1795 841 c-3 -5 -2 -12 3 -15 5 -3 9 1 9 9 0 17 -3 19 -12 6z"/>
<path d="M2095 839 c-11 -16 -1 -19 13 -3 7 8 8 14 3 14 -5 0 -13 -5 -16 -11z"/>
<path d="M3955 839 c-11 -16 -1 -19 13 -3 7 8 8 14 3 14 -5 0 -13 -5 -16 -11z"/>
<path d="M4044 839 c-3 -6 -1 -16 5 -22 9 -9 10 -7 5 7 -5 13 -4 17 4 12 7 -4
12 -2 12 3 0 14 -17 14 -26 0z"/>
<path d="M4290 839 c0 -5 5 -7 10 -4 6 3 10 8 10 11 0 2 -4 4 -10 4 -5 0 -10
-5 -10 -11z"/>
<path d="M2135 830 c6 -10 4 -12 -8 -7 -10 3 -17 2 -17 -3 0 -13 27 -13 35 -1
3 5 0 13 -6 17 -8 5 -9 3 -4 -6z"/>
<path d="M3916 823 c-6 -14 -5 -15 5 -6 7 7 10 15 7 18 -3 3 -9 -2 -12 -12z"/>
<path d="M3993 825 c0 -8 4 -15 9 -15 4 0 8 4 8 9 0 6 -4 12 -8 15 -5 3 -9 -1
-9 -9z"/>
<path d="M1755 821 c-3 -5 -2 -12 3 -15 5 -3 9 1 9 9 0 17 -3 19 -12 6z"/>
<path d="M1833 813 c0 -9 4 -10 14 -2 7 6 13 12 13 14 0 1 -6 2 -13 2 -8 0
-14 -6 -14 -14z"/>
<path d="M1950 823 c5 -2 8 -9 5 -13 -3 -5 -1 -11 4 -14 5 -4 8 2 7 11 -2 9
-8 18 -15 19 -6 1 -7 0 -1 -3z"/>
<path d="M4076 821 c-3 -4 4 -17 17 -27 22 -19 22 -19 4 2 -9 11 -14 24 -10
27 3 4 4 7 0 7 -3 0 -8 -4 -11 -9z"/>
<path d="M4108 823 c6 -3 10 -9 6 -14 -8 -14 2 -11 14 4 8 10 6 13 -11 14 -12
0 -16 -1 -9 -4z"/>
<path d="M4153 823 c4 -3 -1 -16 -10 -27 -18 -21 -18 -21 5 -2 24 21 29 36 10
36 -6 0 -8 -3 -5 -7z"/>
<path d="M1899 807 c8 -9 16 -15 19 -12 3 3 12 -1 21 -8 14 -11 14 -10 2 6 -8
9 -16 15 -19 12 -3 -3 -12 1 -21 8 -14 11 -14 10 -2 -6z"/>
<path d="M3779 808 c-1 -7 -1 -16 0 -20 2 -12 -17 -10 -22 2 -3 6 -4 5 -3 -2
4 -22 29 -14 32 10 2 12 2 22 -1 22 -3 0 -6 -6 -6 -12z"/>
<path d="M1795 800 c3 -5 8 -10 11 -10 2 0 4 5 4 10 0 6 -5 10 -11 10 -5 0 -7
-4 -4 -10z"/>
<path d="M1993 786 l-18 -21 24 20 c13 11 25 19 28 17 3 -2 7 -2 9 1 2 2 -3 4
-11 4 -8 0 -23 -10 -32 -21z"/>
<path d="M2255 800 c-3 -5 -3 -10 2 -10 4 0 1 -5 -7 -11 -12 -8 -12 -10 -1 -7
8 2 15 12 17 21 3 19 -2 22 -11 7z"/>
<path d="M2281 794 c0 -11 3 -14 6 -6 3 7 2 16 -1 19 -3 4 -6 -2 -5 -13z"/>
<path d="M3801 794 c0 -11 3 -14 6 -6 3 7 2 16 -1 19 -3 4 -6 -2 -5 -13z"/>
<path d="M3904 796 c11 -9 24 -16 30 -16 12 0 7 5 -24 19 -24 11 -24 11 -6 -3z"/>
<path d="M3933 803 c9 -8 47 -11 47 -4 0 5 -11 9 -25 9 -14 0 -24 -2 -22 -5z"/>
<path d="M3830 790 c0 -5 7 -7 15 -4 8 4 15 8 15 10 0 2 -7 4 -15 4 -8 0 -15
-4 -15 -10z"/>
<path d="M1734 778 c-4 -7 -4 -10 1 -6 4 4 15 2 24 -5 14 -11 14 -10 2 6 -16
20 -18 21 -27 5z"/>
<path d="M2035 781 c-3 -5 -2 -12 3 -15 5 -3 9 1 9 9 0 17 -3 19 -12 6z"/>
<path d="M2190 780 c0 -5 5 -10 10 -10 6 0 10 5 10 10 0 6 -4 10 -10 10 -5 0
-10 -4 -10 -10z"/>
<path d="M2308 779 c-20 -11 -24 -29 -6 -29 6 0 8 3 5 7 -4 3 1 12 11 19 20
16 14 18 -10 3z"/>
<path d="M3873 783 c4 -3 1 -13 -6 -22 -11 -14 -10 -14 6 -2 20 15 22 31 5 31
-6 0 -8 -3 -5 -7z"/>
<path d="M4040 775 c-7 -9 -11 -17 -9 -20 3 -2 10 5 17 15 14 24 10 26 -8 5z"/>
<path d="M4170 779 c0 -5 5 -7 10 -4 6 3 10 8 10 11 0 2 -4 4 -10 4 -5 0 -10
-5 -10 -11z"/>
<path d="M1535 771 c-3 -5 -2 -12 3 -15 5 -3 9 1 9 9 0 17 -3 19 -12 6z"/>
<path d="M2057 761 c-4 -17 -3 -21 5 -13 5 5 8 16 6 23 -3 8 -7 3 -11 -10z"/>
<path d="M2093 763 c1 -17 4 -19 14 -11 15 12 18 22 4 14 -5 -4 -11 0 -14 6
-3 7 -4 3 -4 -9z"/>
<path d="M2151 764 c0 -11 3 -14 6 -6 3 7 2 16 -1 19 -3 4 -6 -2 -5 -13z"/>
<path d="M2329 763 c-13 -16 -12 -17 4 -4 9 8 20 11 24 7 4 -3 -2 -13 -13 -22
-18 -14 -18 -15 4 -4 13 6 22 16 19 23 -6 18 -23 19 -38 0z"/>
<path d="M2260 760 c-9 -6 -10 -10 -3 -10 6 0 15 5 18 10 8 12 4 12 -15 0z"/>
<path d="M3578 753 c-7 -9 -6 -14 6 -19 9 -3 13 -10 10 -15 -3 -5 2 -6 12 -2
14 5 14 7 -5 18 -22 11 -19 27 4 19 7 -3 15 -2 18 3 9 14 -33 10 -45 -4z"/>
<path d="M3671 760 c-9 -5 -4 -7 13 -7 29 0 32 2 13 10 -8 3 -20 2 -26 -3z"/>
<path d="M3790 761 c0 -10 19 -25 25 -20 1 2 -3 10 -11 17 -8 7 -14 8 -14 3z"/>
<path d="M3820 760 c8 -5 20 -10 25 -10 6 0 3 5 -5 10 -8 5 -19 10 -25 10 -5
0 -3 -5 5 -10z"/>
<path d="M3916 754 c-8 -20 -8 -24 2 -24 4 0 8 9 9 20 2 24 -3 26 -11 4z"/>
<path d="M3980 760 c-9 -6 -10 -10 -3 -10 6 0 15 5 18 10 8 12 4 12 -15 0z"/>
<path d="M4076 758 c3 -5 10 -6 15 -3 13 9 11 12 -6 12 -8 0 -12 -4 -9 -9z"/>
<path d="M2230 751 c0 -6 4 -13 10 -16 6 -3 7 1 4 9 -7 18 -14 21 -14 7z"/>
<path d="M1814 736 c1 -8 5 -18 8 -22 4 -3 5 1 4 10 -1 8 -5 18 -8 22 -4 3 -5
-1 -4 -10z"/>
<path d="M2437 736 c-3 -8 0 -22 7 -32 10 -13 15 -14 21 -4 5 9 4 11 -3 6 -12
-7 -16 5 -13 32 2 16 -6 15 -12 -2z"/>
<path d="M3507 743 c-4 -3 -7 -15 -7 -25 0 -17 -2 -17 -36 -1 -30 15 -36 15
-44 3 -11 -18 -4 -30 18 -29 14 0 14 2 -2 8 -13 5 -16 10 -8 15 6 4 24 0 40
-8 32 -17 42 -13 42 16 0 11 5 16 10 13 6 -3 10 -1 10 4 0 12 -13 14 -23 4z"/>
<path d="M3630 740 c0 -5 5 -10 10 -10 6 0 10 5 10 10 0 6 -4 10 -10 10 -5 0
-10 -4 -10 -10z"/>
<path d="M4170 740 c0 -5 5 -10 11 -10 5 0 7 5 4 10 -3 6 -8 10 -11 10 -2 0
-4 -4 -4 -10z"/>
<path d="M2172 731 c2 -8 20 -15 43 -17 21 -1 33 1 26 6 -7 4 -22 7 -34 6 -12
-1 -26 3 -30 9 -5 6 -7 5 -5 -4z"/>
<path d="M2275 730 c3 -5 8 -10 11 -10 2 0 4 5 4 10 0 6 -5 10 -11 10 -5 0 -7
-4 -4 -10z"/>
<path d="M2649 723 c8 -16 8 -23 -2 -26 -9 -4 -9 -6 0 -6 20 -2 23 15 7 35
-14 18 -15 18 -5 -3z"/>
<path d="M3542 728 c-7 -7 -12 -17 -12 -22 0 -6 5 -3 11 7 6 9 15 14 21 11 7
-4 8 -2 4 4 -9 15 -9 15 -24 0z"/>
<path d="M3670 730 c-13 -8 -12 -10 3 -10 9 0 17 5 17 10 0 12 -1 12 -20 0z"/>
<path d="M3710 729 c0 -5 5 -7 10 -4 6 3 10 8 10 11 0 2 -4 4 -10 4 -5 0 -10
-5 -10 -11z"/>
<path d="M3747 727 c-3 -7 3 -13 13 -13 10 0 16 6 13 13 -7 17 -19 17 -26 0z"/>
<path d="M2073 713 c0 -7 5 -9 11 -4 6 4 23 7 39 6 15 -1 25 1 22 4 -12 12
-72 7 -72 -6z"/>
<path d="M2550 720 c0 -5 5 -10 10 -10 6 0 10 5 10 10 0 6 -4 10 -10 10 -5 0
-10 -4 -10 -10z"/>
<path d="M2590 720 c-13 -8 -12 -10 3 -10 9 0 17 5 17 10 0 12 -1 12 -20 0z"/>
<path d="M2685 719 c-4 -6 -4 -13 -1 -16 3 -4 6 -1 6 6 0 7 5 9 12 5 7 -4 8
-3 4 4 -9 15 -13 15 -21 1z"/>
<path d="M3356 717 c3 -10 9 -15 12 -12 3 3 0 11 -7 18 -10 9 -11 8 -5 -6z"/>
<path d="M3386 717 c3 -10 9 -15 12 -12 3 3 0 11 -7 18 -10 9 -11 8 -5 -6z"/>
<path d="M3799 723 c0 -5 -2 -16 -4 -26 -2 -11 -1 -16 3 -13 8 8 14 46 7 46
-3 0 -5 -3 -6 -7z"/>
<path d="M2300 716 c0 -2 11 -6 25 -8 13 -3 22 -1 19 3 -5 9 -44 13 -44 5z"/>
<path d="M2397 714 c-4 -4 -7 -11 -7 -15 0 -9 27 -5 37 6 4 4 3 5 -4 2 -6 -4
-13 -2 -15 4 -2 5 -7 7 -11 3z"/>
<path d="M3315 710 c-4 -6 -3 -14 0 -20 9 -14 -2 -12 -30 6 -22 14 -24 14 -35
-5 -7 -14 -7 -21 0 -21 5 0 10 7 10 16 0 15 2 15 25 0 29 -19 47 -13 38 12 -6
15 -5 15 10 3 9 -7 17 -9 17 -3 0 14 -28 23 -35 12z"/>
<path d="M3635 710 c-3 -5 -1 -10 4 -10 6 0 11 5 11 10 0 6 -2 10 -4 10 -3 0
-8 -4 -11 -10z"/>
<path d="M3829 703 c-13 -16 -12 -17 4 -4 16 13 21 21 13 21 -2 0 -10 -8 -17
-17z"/>
<path d="M1906 702 c-3 -5 1 -9 9 -9 8 0 12 4 9 9 -3 4 -7 8 -9 8 -2 0 -6 -4
-9 -8z"/>
<path d="M2159 708 c-5 -18 -6 -39 -2 -34 4 3 13 0 22 -6 12 -10 12 -7 -2 8
-9 11 -14 24 -10 27 3 4 3 7 0 7 -4 0 -7 -1 -8 -2z"/>
<path d="M2488 703 c6 -2 9 -10 6 -15 -4 -7 -2 -8 5 -4 13 9 5 26 -12 25 -9 0
-8 -2 1 -6z"/>
<path d="M3140 700 c-8 -5 -18 -6 -24 -3 -5 3 -6 1 -2 -5 5 -8 13 -9 25 -2 14
7 20 4 29 -14 10 -23 43 -29 59 -11 5 4 2 5 -4 1 -8 -4 -13 -2 -13 5 0 8 -5 7
-17 -2 -15 -12 -16 -12 -9 6 4 11 4 16 0 12 -4 -4 -12 0 -18 8 -7 10 -16 12
-26 5z"/>
<path d="M3210 701 c0 -5 5 -13 10 -16 6 -3 10 -2 10 4 0 5 -4 13 -10 16 -5 3
-10 2 -10 -4z"/>
<path d="M3550 700 c0 -5 7 -7 15 -4 8 4 15 8 15 10 0 2 -7 4 -15 4 -8 0 -15
-4 -15 -10z"/>
<path d="M3714 694 c4 -9 1 -24 -6 -33 -11 -14 -11 -14 4 -3 17 14 21 52 5 52
-5 0 -6 -7 -3 -16z"/>
<path d="M3950 698 c0 -4 4 -8 9 -8 6 0 12 4 15 8 3 5 -1 9 -9 9 -8 0 -15 -4
-15 -9z"/>
<path d="M4050 699 c0 -5 5 -7 10 -4 6 3 10 8 10 11 0 2 -4 4 -10 4 -5 0 -10
-5 -10 -11z"/>
<path d="M2572 680 c0 -14 2 -19 5 -12 2 6 2 18 0 25 -3 6 -5 1 -5 -13z"/>
<path d="M2695 690 c-4 -6 1 -7 11 -3 12 4 15 3 10 -5 -5 -8 -2 -10 9 -5 13 5
14 7 3 14 -17 11 -26 11 -33 -1z"/>
<path d="M2266 678 c3 -5 9 -7 12 -4 3 3 12 0 21 -6 13 -10 14 -10 4 2 -15 16
-46 23 -37 8z"/>
<path d="M2373 675 c0 -8 4 -12 9 -9 5 3 6 10 3 15 -9 13 -12 11 -12 -6z"/>
<path d="M2430 680 c0 -5 5 -10 11 -10 5 0 7 5 4 10 -3 6 -8 10 -11 10 -2 0
-4 -4 -4 -10z"/>
<path d="M2517 676 c-4 -10 -1 -13 9 -9 15 6 19 23 5 23 -5 0 -11 -7 -14 -14z"/>
<path d="M2670 680 c0 -6 6 -13 14 -16 8 -3 12 -13 9 -25 -3 -10 -3 -19 0 -19
15 0 12 40 -4 54 -11 9 -19 11 -19 6z"/>
<path d="M2785 680 c3 -5 8 -10 11 -10 2 0 4 5 4 10 0 6 -5 10 -11 10 -5 0 -7
-4 -4 -10z"/>
<path d="M2859 683 c-1 -5 -1 -12 0 -16 2 -11 -32 -4 -42 8 -5 6 -7 4 -4 -5 5
-19 53 -20 49 -2 -2 10 4 12 20 7 18 -5 20 -4 8 4 -18 13 -30 14 -31 4z"/>
<path d="M3389 673 c12 -8 25 -12 28 -9 4 3 1 6 -6 6 -7 0 -10 4 -7 8 2 4 -5
9 -16 9 -21 2 -21 2 1 -14z"/>
<path d="M3564 679 c-3 -6 -1 -16 5 -22 9 -9 10 -7 5 7 -5 13 -4 17 4 12 7 -4
12 -2 12 3 0 14 -17 14 -26 0z"/>
<path d="M3670 680 c0 -5 5 -10 11 -10 5 0 7 5 4 10 -3 6 -8 10 -11 10 -2 0
-4 -4 -4 -10z"/>
<path d="M2634 672 c3 -6 0 -13 -6 -16 -7 -3 -2 -3 11 0 17 5 21 3 16 -6 -5
-9 -4 -11 3 -6 16 10 15 14 -9 27 -13 6 -19 7 -15 1z"/>
<path d="M2750 672 c0 -7 -5 -10 -12 -6 -6 4 -8 3 -4 -4 3 -6 15 -9 25 -7 11
2 22 -3 25 -11 3 -9 10 -13 15 -10 5 4 12 1 14 -4 4 -7 5 -6 4 1 -2 6 -6 9 -9
7 -4 -2 -14 6 -22 17 -9 11 -16 16 -16 10 0 -5 -5 -3 -10 5 -7 11 -10 11 -10
2z"/>
<path d="M3350 670 c0 -5 7 -10 16 -10 9 0 12 -5 8 -12 -4 -7 -3 -8 4 -4 16
10 15 14 -8 26 -14 7 -20 7 -20 0z"/>
<path d="M3435 670 c3 -5 8 -10 11 -10 2 0 4 5 4 10 0 6 -5 10 -11 10 -5 0 -7
-4 -4 -10z"/>
<path d="M3480 676 c0 -2 7 -7 16 -10 8 -3 12 -2 9 4 -6 10 -25 14 -25 6z"/>
<path d="M1976 662 c-3 -4 4 -9 15 -9 23 -2 25 3 4 10 -8 4 -16 3 -19 -1z"/>
<path d="M2402 658 c-15 -15 -15 -28 0 -28 6 0 8 3 5 7 -4 3 -2 12 4 20 14 16
7 17 -9 1z"/>
<path d="M2590 661 c0 -6 4 -13 10 -16 6 -3 7 1 4 9 -7 18 -14 21 -14 7z"/>
<path d="M2910 660 c0 -5 5 -10 10 -10 6 0 10 5 10 10 0 6 -4 10 -10 10 -5 0
-10 -4 -10 -10z"/>
<path d="M2956 655 c-11 -8 -15 -15 -10 -15 6 0 16 6 23 13 11 10 13 9 8 -6
-5 -12 -3 -16 5 -11 8 5 9 2 5 -10 -4 -10 -3 -15 3 -11 13 8 13 18 -2 38 -12
14 -15 14 -32 2z"/>
<path d="M3025 660 c-3 -5 4 -7 16 -5 15 3 19 0 15 -11 -4 -10 -2 -13 6 -8 8
5 9 1 4 -12 -5 -14 -4 -16 4 -7 8 7 9 17 2 29 -11 19 -39 27 -47 14z"/>
<path d="M3106 662 c-3 -5 1 -9 9 -9 8 0 15 4 15 9 0 4 -4 8 -9 8 -6 0 -12 -4
-15 -8z"/>
<path d="M3270 660 c0 -5 5 -10 10 -10 6 0 10 5 10 10 0 6 -4 10 -10 10 -5 0
-10 -4 -10 -10z"/>
<path d="M3516 655 c-9 -26 -7 -32 5 -12 6 10 9 21 6 23 -2 3 -7 -2 -11 -11z"/>
<path d="M3628 663 c6 -3 10 -9 6 -14 -8 -14 2 -11 14 4 8 10 6 13 -11 14 -12
0 -16 -1 -9 -4z"/>
<path d="M4056 662 c-3 -5 1 -9 9 -9 8 0 12 4 9 9 -3 4 -7 8 -9 8 -2 0 -6 -4
-9 -8z"/>
<path d="M2333 647 c0 -8 6 -14 14 -14 9 0 10 4 2 14 -6 7 -12 13 -14 13 -1 0
-2 -6 -2 -13z"/>
<path d="M2470 650 c0 -6 -4 -9 -8 -6 -5 3 -9 -1 -9 -9 0 -12 3 -12 16 -3 9 7
17 13 19 14 2 1 -1 5 -7 9 -6 3 -11 1 -11 -5z"/>
<path d="M3729 643 c-13 -16 -12 -17 4 -4 16 13 21 21 13 21 -2 0 -10 -8 -17
-17z"/>
<path d="M2546 642 c-3 -5 1 -9 9 -9 8 0 15 4 15 9 0 4 -4 8 -9 8 -6 0 -12 -4
-15 -8z"/>
<path d="M2715 640 c-3 -5 -1 -10 4 -10 6 0 11 5 11 10 0 6 -2 10 -4 10 -3 0
-8 -4 -11 -10z"/>
<path d="M2878 643 c7 -3 16 -2 19 1 4 3 -2 6 -13 5 -11 0 -14 -3 -6 -6z"/>
<path d="M3135 640 c-3 -5 -1 -10 4 -10 6 0 11 5 11 10 0 6 -2 10 -4 10 -3 0
-8 -4 -11 -10z"/>
<path d="M3230 646 c0 -2 7 -6 15 -10 8 -3 15 -1 15 4 0 6 -7 10 -15 10 -8 0
-15 -2 -15 -4z"/>
<path d="M3300 638 c0 -4 7 -8 15 -8 8 0 15 4 15 8 0 5 -7 9 -15 9 -8 0 -15
-4 -15 -9z"/>
<path d="M3400 640 c-8 -5 -10 -10 -5 -10 6 0 17 5 25 10 8 5 11 10 5 10 -5 0
-17 -5 -25 -10z"/>
<path d="M3785 640 c-3 -6 1 -7 9 -4 18 7 21 14 7 14 -6 0 -13 -4 -16 -10z"/>
<path d="M3970 640 c0 -5 5 -10 11 -10 5 0 7 5 4 10 -3 6 -8 10 -11 10 -2 0
-4 -4 -4 -10z"/>
<path d="M2915 630 c-3 -5 -1 -10 4 -10 6 0 11 5 11 10 0 6 -2 10 -4 10 -3 0
-8 -4 -11 -10z"/>
<path d="M3110 631 c0 -6 4 -13 10 -16 6 -3 7 1 4 9 -7 18 -14 21 -14 7z"/>
<path d="M3190 629 c0 -5 -5 -7 -12 -3 -7 4 -8 3 -4 -4 4 -6 13 -9 21 -6 8 4
12 10 9 15 -7 12 -14 11 -14 -2z"/>
<path d="M2480 615 c-7 -9 -11 -17 -9 -20 3 -2 10 5 17 15 14 24 10 26 -8 5z"/>
<path d="M2598 623 c7 -3 16 -2 19 1 4 3 -2 6 -13 5 -11 0 -14 -3 -6 -6z"/>
<path d="M2755 621 c-9 -15 15 -25 28 -12 9 9 7 10 -7 5 -13 -5 -17 -4 -12 4
4 7 5 12 2 12 -3 0 -7 -4 -11 -9z"/>
<path d="M3437 613 c3 -7 6 -13 8 -13 2 0 5 6 8 13 3 8 -1 14 -8 14 -7 0 -11
-6 -8 -14z"/>
<path d="M3470 626 c0 -2 7 -7 16 -10 8 -3 12 -2 9 4 -6 10 -25 14 -25 6z"/>
<path d="M3591 613 c7 -12 15 -20 18 -17 3 2 -3 12 -13 22 -17 16 -18 16 -5
-5z"/>
<path d="M3707 619 c7 -7 15 -10 18 -7 3 3 -2 9 -12 12 -14 6 -15 5 -6 -5z"/>
<path d="M2069 603 c-13 -16 -12 -17 4 -4 16 13 21 21 13 21 -2 0 -10 -8 -17
-17z"/>
<path d="M2376 607 c3 -10 9 -15 12 -12 3 3 0 11 -7 18 -10 9 -11 8 -5 -6z"/>
<path d="M2414 609 c-3 -6 -2 -15 3 -20 5 -5 9 -1 9 11 0 23 -2 24 -12 9z"/>
<path d="M3148 613 c6 -2 10 -8 8 -12 -3 -4 5 -8 16 -8 20 -2 20 -1 2 12 -11
8 -23 14 -29 14 -5 0 -4 -3 3 -6z"/>
<path d="M3530 617 c0 -2 6 -10 14 -16 11 -9 16 -9 22 1 4 7 4 10 -1 6 -4 -4
-14 -3 -22 3 -7 6 -13 9 -13 6z"/>
<path d="M2110 599 c0 -5 5 -7 10 -4 6 3 10 8 10 11 0 2 -4 4 -10 4 -5 0 -10
-5 -10 -11z"/>
<path d="M2600 606 c0 -2 8 -10 18 -17 15 -13 16 -12 3 4 -13 16 -21 21 -21
13z"/>
<path d="M2680 600 c-9 -6 -10 -10 -3 -10 6 0 15 5 18 10 8 12 4 12 -15 0z"/>
<path d="M2795 600 c-3 -5 -1 -10 4 -10 6 0 11 5 11 10 0 6 -2 10 -4 10 -3 0
-8 -4 -11 -10z"/>
<path d="M2850 601 c0 -6 4 -13 10 -16 6 -3 7 1 4 9 -7 18 -14 21 -14 7z"/>
<path d="M2890 602 c0 -5 7 -9 15 -9 8 0 12 4 9 9 -3 4 -9 8 -15 8 -5 0 -9 -4
-9 -8z"/>
<path d="M2930 599 c0 -4 11 -6 24 -5 13 0 22 4 20 8 -6 9 -44 6 -44 -3z"/>
<path d="M2995 600 c-2 -3 5 -7 16 -7 10 -1 19 2 19 6 0 9 -29 10 -35 1z"/>
<path d="M3075 600 c-3 -5 -1 -10 4 -10 6 0 11 5 11 10 0 6 -2 10 -4 10 -3 0
-8 -4 -11 -10z"/>
<path d="M3259 593 c-12 -16 -12 -17 2 -6 9 7 19 10 22 6 4 -3 7 -1 7 5 0 17
-16 15 -31 -5z"/>
<path d="M3330 601 c0 -6 4 -13 10 -16 6 -3 7 1 4 9 -7 18 -14 21 -14 7z"/>
<path d="M3373 595 c0 -8 4 -12 9 -9 5 3 6 10 3 15 -9 13 -12 11 -12 -6z"/>
<path d="M2554 586 c1 -8 5 -18 8 -22 4 -3 5 1 4 10 -1 8 -5 18 -8 22 -4 3 -5
-1 -4 -10z"/>
<path d="M3306 583 c-6 -14 -5 -15 5 -6 7 7 10 15 7 18 -3 3 -9 -2 -12 -12z"/>
<path d="M2215 581 c-3 -5 -2 -12 3 -15 5 -3 9 1 9 9 0 17 -3 19 -12 6z"/>
<path d="M3516 573 c-6 -14 -5 -15 5 -6 7 7 10 15 7 18 -3 3 -9 -2 -12 -12z"/>
<path d="M3816 578 c3 -5 10 -6 15 -3 13 9 11 12 -6 12 -8 0 -12 -4 -9 -9z"/>
<path d="M3856 581 c-3 -5 2 -15 12 -22 15 -12 16 -12 5 2 -7 9 -10 19 -6 22
3 4 4 7 0 7 -3 0 -8 -4 -11 -9z"/>
<path d="M3062 564 c10 -10 20 -16 22 -13 3 3 -5 11 -17 18 -21 13 -21 12 -5
-5z"/>
<path d="M3395 570 c-4 -6 -11 -7 -17 -4 -7 4 -8 2 -4 -5 6 -9 11 -9 22 0 14
11 18 19 10 19 -3 0 -8 -5 -11 -10z"/>
<path d="M2585 560 c-3 -6 1 -7 9 -4 18 7 21 14 7 14 -6 0 -13 -4 -16 -10z"/>
<path d="M2907 559 c7 -7 15 -10 18 -7 3 3 -2 9 -12 12 -14 6 -15 5 -6 -5z"/>
<path d="M3233 551 c0 -11 5 -18 9 -15 4 3 5 11 1 19 -7 21 -12 19 -10 -4z"/>
<path d="M2955 549 c-4 -6 -5 -12 -2 -15 2 -3 7 2 10 11 7 17 1 20 -8 4z"/>
<path d="M3109 543 c-13 -16 -12 -17 4 -4 16 13 21 21 13 21 -2 0 -10 -8 -17
-17z"/>
<path d="M2410 539 c0 -5 5 -7 10 -4 6 3 10 8 10 11 0 2 -4 4 -10 4 -5 0 -10
-5 -10 -11z"/>
<path d="M2450 539 c0 -5 5 -7 10 -4 6 3 10 8 10 11 0 2 -4 4 -10 4 -5 0 -10
-5 -10 -11z"/>
<path d="M2746 538 c3 -4 9 -8 15 -8 5 0 9 4 9 8 0 5 -7 9 -15 9 -8 0 -12 -4
-9 -9z"/>
<path d="M2830 538 c0 -4 4 -8 9 -8 6 0 12 4 15 8 3 5 -1 9 -9 9 -8 0 -15 -4
-15 -9z"/>
<path d="M3030 542 c0 -5 7 -9 15 -9 8 0 12 4 9 9 -3 4 -9 8 -15 8 -5 0 -9 -4
-9 -8z"/>
<path d="M3265 540 c-3 -6 1 -7 9 -4 18 7 21 14 7 14 -6 0 -13 -4 -16 -10z"/>
<path d="M2790 536 c0 -2 8 -10 18 -17 15 -13 16 -12 3 4 -13 16 -21 21 -21
13z"/>
<path d="M3199 513 c-13 -16 -12 -17 4 -4 16 13 21 21 13 21 -2 0 -10 -8 -17
-17z"/>
<path d="M2495 511 c-3 -5 -2 -12 3 -15 5 -3 9 1 9 9 0 17 -3 19 -12 6z"/>
<path d="M2946 478 c3 -4 9 -8 15 -8 5 0 9 4 9 8 0 5 -7 9 -15 9 -8 0 -12 -4
-9 -9z"/>
<path d="M3100 486 c0 -2 8 -10 18 -17 15 -13 16 -12 3 4 -13 16 -21 21 -21
13z"/>
<path d="M2715 469 c-4 -6 -5 -12 -2 -15 2 -3 7 2 10 11 7 17 1 20 -8 4z"/>
<path d="M2895 460 c-3 -5 -1 -10 4 -10 6 0 11 5 11 10 0 6 -2 10 -4 10 -3 0
-8 -4 -11 -10z"/>
<path d="M3055 460 c-3 -5 -1 -10 4 -10 6 0 11 5 11 10 0 6 -2 10 -4 10 -3 0
-8 -4 -11 -10z"/>
<path d="M3179 468 c-5 -18 -6 -38 -1 -34 7 8 12 36 6 36 -2 0 -4 -1 -5 -2z"/>
<path d="M3293 463 c4 -3 1 -13 -6 -22 -11 -14 -10 -14 5 -2 16 12 16 31 1 31
-4 0 -3 -3 0 -7z"/>
<path d="M3235 440 c3 -5 8 -10 11 -10 2 0 4 5 4 10 0 6 -5 10 -11 10 -5 0 -7
-4 -4 -10z"/>
<path d="M3113 395 c0 -8 4 -12 9 -9 5 3 6 10 3 15 -9 13 -12 11 -12 -6z"/>
<path d="M3310 360 c0 -5 5 -10 11 -10 5 0 7 5 4 10 -3 6 -8 10 -11 10 -2 0
-4 -4 -4 -10z"/>
</g>
</svg>
