<svg width="258" height="60" viewBox="0 0 258 60" fill="none" xmlns="http://www.w3.org/2000/svg">
<mask id="path-1-outside-1_1453_4599" maskUnits="userSpaceOnUse" x="9.55273" y="5.29102" width="229" height="48" fill="black">
<rect fill="white" x="9.55273" y="5.29102" width="229" height="48"/>
<path d="M12.5527 50.1028V21.0571H20.5335V24.2193H21.692C22.2498 23.2433 23.1723 22.4039 24.4595 21.7012C25.7468 20.9595 27.4416 20.5886 29.5441 20.5886C31.8182 20.5886 33.6417 20.9985 35.0148 21.8183C36.3878 22.5991 37.439 23.6337 38.1685 24.922H39.327C40.0564 23.6727 41.0862 22.6382 42.4163 21.8183C43.7464 20.9985 45.6343 20.5886 48.0801 20.5886C50.0538 20.5886 51.8345 20.979 53.422 21.7598C55.0525 22.5015 56.3397 23.6532 57.2837 25.2148C58.2706 26.7374 58.764 28.6698 58.764 31.0122V50.1028H50.6545V31.5393C50.6545 29.9386 50.204 28.7479 49.3029 27.9671C48.4019 27.1473 47.1361 26.7374 45.5056 26.7374C43.6606 26.7374 42.2232 27.2839 41.1934 28.377C40.2066 29.4311 39.7131 30.9537 39.7131 32.9447V50.1028H31.6036V31.5393C31.6036 29.9386 31.1531 28.7479 30.252 27.9671C29.351 27.1473 28.0852 26.7374 26.4547 26.7374C24.6097 26.7374 23.1723 27.2839 22.1425 28.377C21.1557 29.4311 20.6622 30.9537 20.6622 32.9447V50.1028H12.5527ZM71.6051 50.9226C69.331 50.9226 67.2929 50.5712 65.4907 49.8685C63.6886 49.1268 62.2512 48.0727 61.1786 46.7063C60.1488 45.3008 59.6339 43.6026 59.6339 41.6116C59.6339 39.6205 60.1488 37.9613 61.1786 36.634C62.2512 35.2676 63.7101 34.2526 65.5551 33.5889C67.443 32.8862 69.5884 32.5348 71.9912 32.5348H80.7443V30.8951C80.7443 29.5287 80.2724 28.4161 79.3284 27.5572C78.3844 26.6593 76.8827 26.2103 74.8231 26.2103C72.8065 26.2103 71.3047 26.6398 70.3178 27.4987C69.331 28.3185 68.6874 29.3921 68.387 30.7194L60.9211 28.4356C61.436 26.9521 62.2512 25.6052 63.3668 24.395C64.5253 23.1457 66.0485 22.1502 67.9365 21.4084C69.8673 20.6276 72.2058 20.2372 74.9518 20.2372C79.1568 20.2372 82.4821 21.1937 84.9278 23.1067C87.3735 25.0196 88.5964 27.7914 88.5964 31.4222V42.2557C88.5964 43.4269 89.1971 44.0125 90.3985 44.0125H92.9729V50.1028H87.5666C85.979 50.1028 84.6704 49.7514 83.6406 49.0487C82.6108 48.346 82.0959 47.409 82.0959 46.2378V46.1792H80.8731C80.7014 46.6477 80.3153 47.2724 79.7146 48.0532C79.1139 48.7949 78.1699 49.4586 76.8827 50.0442C75.5954 50.6298 73.8362 50.9226 71.6051 50.9226ZM73.021 44.9495C75.2951 44.9495 77.1401 44.3834 78.5561 43.2513C80.0149 42.0801 80.7443 40.538 80.7443 38.625V38.0394H72.5705C71.0687 38.0394 69.8888 38.3322 69.0306 38.9178C68.1725 39.5034 67.7434 40.3233 67.7434 41.3773C67.7434 42.4314 68.1939 43.2903 69.095 43.954C69.996 44.6177 71.3047 44.9495 73.021 44.9495ZM93.1097 50.1028V21.0571H101.09V24.3364H102.249C102.721 23.1652 103.493 22.3063 104.566 21.7598C105.682 21.2132 106.969 20.9399 108.428 20.9399H112.289V27.4987H108.299C106.239 27.4987 104.545 28.0062 103.214 29.0212C101.884 29.9972 101.219 31.5198 101.219 33.5889V50.1028H93.1097ZM112.835 50.1028V21.0571H120.945V50.1028H112.835ZM116.89 17.6606C115.431 17.6606 114.187 17.2312 113.157 16.3723C112.17 15.5134 111.677 14.3812 111.677 12.9758C111.677 11.5704 112.17 10.4382 113.157 9.57933C114.187 8.72045 115.431 8.29102 116.89 8.29102C118.392 8.29102 119.636 8.72045 120.623 9.57933C121.61 10.4382 122.103 11.5704 122.103 12.9758C122.103 14.3812 121.61 15.5134 120.623 16.3723C119.636 17.2312 118.392 17.6606 116.89 17.6606ZM141.001 50.9226C135.423 50.9226 131.004 49.5172 127.743 46.7063C124.482 43.8564 122.852 39.7962 122.852 34.5258V24.6878C122.852 19.4174 124.482 15.3768 127.743 12.5659C131.004 9.71597 135.423 8.29102 141.001 8.29102C146.536 8.29102 150.806 9.67693 153.809 12.4488C156.856 15.1816 158.379 18.9489 158.379 23.7508V24.1022H150.012V23.5166C150.012 21.0961 149.261 19.1051 147.759 17.5435C146.3 15.9819 144.048 15.2011 141.001 15.2011C137.998 15.2011 135.638 16.0404 133.922 17.7192C132.205 19.3979 131.347 21.6817 131.347 24.5707V34.643C131.347 37.4929 132.205 39.7767 133.922 41.4945C135.638 43.1732 137.998 44.0125 141.001 44.0125C144.048 44.0125 146.3 43.2317 147.759 41.6701C149.261 40.0695 150.012 38.0785 150.012 35.697V34.643H158.379V35.4628C158.379 40.2647 156.856 44.0516 153.809 46.8234C150.806 49.5562 146.536 50.9226 141.001 50.9226ZM174.955 50.9226C171.78 50.9226 168.927 50.337 166.395 49.1658C163.864 47.9946 161.869 46.2964 160.41 44.0711C158.951 41.8458 158.222 39.1716 158.222 36.0484V35.1114C158.222 31.9882 158.951 29.314 160.41 27.0887C161.869 24.8635 163.864 23.1652 166.395 21.994C168.927 20.8228 171.78 20.2372 174.955 20.2372C178.131 20.2372 180.984 20.8228 183.515 21.994C186.047 23.1652 188.042 24.8635 189.501 27.0887C190.96 29.314 191.689 31.9882 191.689 35.1114V36.0484C191.689 39.1716 190.96 41.8458 189.501 44.0711C188.042 46.2964 186.047 47.9946 183.515 49.1658C180.984 50.337 178.131 50.9226 174.955 50.9226ZM174.955 44.3639C177.444 44.3639 179.504 43.6417 181.134 42.1972C182.765 40.7137 183.58 38.6055 183.58 35.8727V35.2871C183.58 32.5543 182.765 30.4657 181.134 29.0212C179.547 27.5377 177.487 26.7959 174.955 26.7959C172.467 26.7959 170.407 27.5377 168.777 29.0212C167.146 30.4657 166.331 32.5543 166.331 35.2871V35.8727C166.331 38.6055 167.146 40.7137 168.777 42.1972C170.407 43.6417 172.467 44.3639 174.955 44.3639ZM193.382 50.1028V21.0571H201.492V50.1028H193.382ZM197.437 17.6606C195.978 17.6606 194.734 17.2312 193.704 16.3723C192.717 15.5134 192.224 14.3812 192.224 12.9758C192.224 11.5704 192.717 10.4382 193.704 9.57933C194.734 8.72045 195.978 8.29102 197.437 8.29102C198.939 8.29102 200.183 8.72045 201.17 9.57933C202.157 10.4382 202.65 11.5704 202.65 12.9758C202.65 14.3812 202.157 15.5134 201.17 16.3723C200.183 17.2312 198.939 17.6606 197.437 17.6606ZM204.686 50.1028V21.0571H212.667V24.8635H213.825C214.34 23.8484 215.305 22.8919 216.721 21.994C218.137 21.0571 220.283 20.5886 223.157 20.5886C225.646 20.5886 227.813 21.1156 229.658 22.1697C231.546 23.1847 233.005 24.6097 234.034 26.4446C235.064 28.2404 235.579 30.3486 235.579 32.769V50.1028H227.47V33.3546C227.47 31.1684 226.869 29.5287 225.667 28.4356C224.509 27.3425 222.836 26.7959 220.647 26.7959C218.159 26.7959 216.228 27.5572 214.855 29.0798C213.482 30.5633 212.795 32.6519 212.795 35.3457V50.1028H204.686Z"/>
</mask>
<path d="M12.5527 50.1028V21.0571H20.5335V24.2193H21.692C22.2498 23.2433 23.1723 22.4039 24.4595 21.7012C25.7468 20.9595 27.4416 20.5886 29.5441 20.5886C31.8182 20.5886 33.6417 20.9985 35.0148 21.8183C36.3878 22.5991 37.439 23.6337 38.1685 24.922H39.327C40.0564 23.6727 41.0862 22.6382 42.4163 21.8183C43.7464 20.9985 45.6343 20.5886 48.0801 20.5886C50.0538 20.5886 51.8345 20.979 53.422 21.7598C55.0525 22.5015 56.3397 23.6532 57.2837 25.2148C58.2706 26.7374 58.764 28.6698 58.764 31.0122V50.1028H50.6545V31.5393C50.6545 29.9386 50.204 28.7479 49.3029 27.9671C48.4019 27.1473 47.1361 26.7374 45.5056 26.7374C43.6606 26.7374 42.2232 27.2839 41.1934 28.377C40.2066 29.4311 39.7131 30.9537 39.7131 32.9447V50.1028H31.6036V31.5393C31.6036 29.9386 31.1531 28.7479 30.252 27.9671C29.351 27.1473 28.0852 26.7374 26.4547 26.7374C24.6097 26.7374 23.1723 27.2839 22.1425 28.377C21.1557 29.4311 20.6622 30.9537 20.6622 32.9447V50.1028H12.5527ZM71.6051 50.9226C69.331 50.9226 67.2929 50.5712 65.4907 49.8685C63.6886 49.1268 62.2512 48.0727 61.1786 46.7063C60.1488 45.3008 59.6339 43.6026 59.6339 41.6116C59.6339 39.6205 60.1488 37.9613 61.1786 36.634C62.2512 35.2676 63.7101 34.2526 65.5551 33.5889C67.443 32.8862 69.5884 32.5348 71.9912 32.5348H80.7443V30.8951C80.7443 29.5287 80.2724 28.4161 79.3284 27.5572C78.3844 26.6593 76.8827 26.2103 74.8231 26.2103C72.8065 26.2103 71.3047 26.6398 70.3178 27.4987C69.331 28.3185 68.6874 29.3921 68.387 30.7194L60.9211 28.4356C61.436 26.9521 62.2512 25.6052 63.3668 24.395C64.5253 23.1457 66.0485 22.1502 67.9365 21.4084C69.8673 20.6276 72.2058 20.2372 74.9518 20.2372C79.1568 20.2372 82.4821 21.1937 84.9278 23.1067C87.3735 25.0196 88.5964 27.7914 88.5964 31.4222V42.2557C88.5964 43.4269 89.1971 44.0125 90.3985 44.0125H92.9729V50.1028H87.5666C85.979 50.1028 84.6704 49.7514 83.6406 49.0487C82.6108 48.346 82.0959 47.409 82.0959 46.2378V46.1792H80.8731C80.7014 46.6477 80.3153 47.2724 79.7146 48.0532C79.1139 48.7949 78.1699 49.4586 76.8827 50.0442C75.5954 50.6298 73.8362 50.9226 71.6051 50.9226ZM73.021 44.9495C75.2951 44.9495 77.1401 44.3834 78.5561 43.2513C80.0149 42.0801 80.7443 40.538 80.7443 38.625V38.0394H72.5705C71.0687 38.0394 69.8888 38.3322 69.0306 38.9178C68.1725 39.5034 67.7434 40.3233 67.7434 41.3773C67.7434 42.4314 68.1939 43.2903 69.095 43.954C69.996 44.6177 71.3047 44.9495 73.021 44.9495ZM93.1097 50.1028V21.0571H101.09V24.3364H102.249C102.721 23.1652 103.493 22.3063 104.566 21.7598C105.682 21.2132 106.969 20.9399 108.428 20.9399H112.289V27.4987H108.299C106.239 27.4987 104.545 28.0062 103.214 29.0212C101.884 29.9972 101.219 31.5198 101.219 33.5889V50.1028H93.1097ZM112.835 50.1028V21.0571H120.945V50.1028H112.835ZM116.89 17.6606C115.431 17.6606 114.187 17.2312 113.157 16.3723C112.17 15.5134 111.677 14.3812 111.677 12.9758C111.677 11.5704 112.17 10.4382 113.157 9.57933C114.187 8.72045 115.431 8.29102 116.89 8.29102C118.392 8.29102 119.636 8.72045 120.623 9.57933C121.61 10.4382 122.103 11.5704 122.103 12.9758C122.103 14.3812 121.61 15.5134 120.623 16.3723C119.636 17.2312 118.392 17.6606 116.89 17.6606ZM141.001 50.9226C135.423 50.9226 131.004 49.5172 127.743 46.7063C124.482 43.8564 122.852 39.7962 122.852 34.5258V24.6878C122.852 19.4174 124.482 15.3768 127.743 12.5659C131.004 9.71597 135.423 8.29102 141.001 8.29102C146.536 8.29102 150.806 9.67693 153.809 12.4488C156.856 15.1816 158.379 18.9489 158.379 23.7508V24.1022H150.012V23.5166C150.012 21.0961 149.261 19.1051 147.759 17.5435C146.3 15.9819 144.048 15.2011 141.001 15.2011C137.998 15.2011 135.638 16.0404 133.922 17.7192C132.205 19.3979 131.347 21.6817 131.347 24.5707V34.643C131.347 37.4929 132.205 39.7767 133.922 41.4945C135.638 43.1732 137.998 44.0125 141.001 44.0125C144.048 44.0125 146.3 43.2317 147.759 41.6701C149.261 40.0695 150.012 38.0785 150.012 35.697V34.643H158.379V35.4628C158.379 40.2647 156.856 44.0516 153.809 46.8234C150.806 49.5562 146.536 50.9226 141.001 50.9226ZM174.955 50.9226C171.78 50.9226 168.927 50.337 166.395 49.1658C163.864 47.9946 161.869 46.2964 160.41 44.0711C158.951 41.8458 158.222 39.1716 158.222 36.0484V35.1114C158.222 31.9882 158.951 29.314 160.41 27.0887C161.869 24.8635 163.864 23.1652 166.395 21.994C168.927 20.8228 171.78 20.2372 174.955 20.2372C178.131 20.2372 180.984 20.8228 183.515 21.994C186.047 23.1652 188.042 24.8635 189.501 27.0887C190.96 29.314 191.689 31.9882 191.689 35.1114V36.0484C191.689 39.1716 190.96 41.8458 189.501 44.0711C188.042 46.2964 186.047 47.9946 183.515 49.1658C180.984 50.337 178.131 50.9226 174.955 50.9226ZM174.955 44.3639C177.444 44.3639 179.504 43.6417 181.134 42.1972C182.765 40.7137 183.58 38.6055 183.58 35.8727V35.2871C183.58 32.5543 182.765 30.4657 181.134 29.0212C179.547 27.5377 177.487 26.7959 174.955 26.7959C172.467 26.7959 170.407 27.5377 168.777 29.0212C167.146 30.4657 166.331 32.5543 166.331 35.2871V35.8727C166.331 38.6055 167.146 40.7137 168.777 42.1972C170.407 43.6417 172.467 44.3639 174.955 44.3639ZM193.382 50.1028V21.0571H201.492V50.1028H193.382ZM197.437 17.6606C195.978 17.6606 194.734 17.2312 193.704 16.3723C192.717 15.5134 192.224 14.3812 192.224 12.9758C192.224 11.5704 192.717 10.4382 193.704 9.57933C194.734 8.72045 195.978 8.29102 197.437 8.29102C198.939 8.29102 200.183 8.72045 201.17 9.57933C202.157 10.4382 202.65 11.5704 202.65 12.9758C202.65 14.3812 202.157 15.5134 201.17 16.3723C200.183 17.2312 198.939 17.6606 197.437 17.6606ZM204.686 50.1028V21.0571H212.667V24.8635H213.825C214.34 23.8484 215.305 22.8919 216.721 21.994C218.137 21.0571 220.283 20.5886 223.157 20.5886C225.646 20.5886 227.813 21.1156 229.658 22.1697C231.546 23.1847 233.005 24.6097 234.034 26.4446C235.064 28.2404 235.579 30.3486 235.579 32.769V50.1028H227.47V33.3546C227.47 31.1684 226.869 29.5287 225.667 28.4356C224.509 27.3425 222.836 26.7959 220.647 26.7959C218.159 26.7959 216.228 27.5572 214.855 29.0798C213.482 30.5633 212.795 32.6519 212.795 35.3457V50.1028H204.686Z" fill="black"/>
<path d="M12.5527 50.1028V21.0571H20.5335V24.2193H21.692C22.2498 23.2433 23.1723 22.4039 24.4595 21.7012C25.7468 20.9595 27.4416 20.5886 29.5441 20.5886C31.8182 20.5886 33.6417 20.9985 35.0148 21.8183C36.3878 22.5991 37.439 23.6337 38.1685 24.922H39.327C40.0564 23.6727 41.0862 22.6382 42.4163 21.8183C43.7464 20.9985 45.6343 20.5886 48.0801 20.5886C50.0538 20.5886 51.8345 20.979 53.422 21.7598C55.0525 22.5015 56.3397 23.6532 57.2837 25.2148C58.2706 26.7374 58.764 28.6698 58.764 31.0122V50.1028H50.6545V31.5393C50.6545 29.9386 50.204 28.7479 49.3029 27.9671C48.4019 27.1473 47.1361 26.7374 45.5056 26.7374C43.6606 26.7374 42.2232 27.2839 41.1934 28.377C40.2066 29.4311 39.7131 30.9537 39.7131 32.9447V50.1028H31.6036V31.5393C31.6036 29.9386 31.1531 28.7479 30.252 27.9671C29.351 27.1473 28.0852 26.7374 26.4547 26.7374C24.6097 26.7374 23.1723 27.2839 22.1425 28.377C21.1557 29.4311 20.6622 30.9537 20.6622 32.9447V50.1028H12.5527ZM71.6051 50.9226C69.331 50.9226 67.2929 50.5712 65.4907 49.8685C63.6886 49.1268 62.2512 48.0727 61.1786 46.7063C60.1488 45.3008 59.6339 43.6026 59.6339 41.6116C59.6339 39.6205 60.1488 37.9613 61.1786 36.634C62.2512 35.2676 63.7101 34.2526 65.5551 33.5889C67.443 32.8862 69.5884 32.5348 71.9912 32.5348H80.7443V30.8951C80.7443 29.5287 80.2724 28.4161 79.3284 27.5572C78.3844 26.6593 76.8827 26.2103 74.8231 26.2103C72.8065 26.2103 71.3047 26.6398 70.3178 27.4987C69.331 28.3185 68.6874 29.3921 68.387 30.7194L60.9211 28.4356C61.436 26.9521 62.2512 25.6052 63.3668 24.395C64.5253 23.1457 66.0485 22.1502 67.9365 21.4084C69.8673 20.6276 72.2058 20.2372 74.9518 20.2372C79.1568 20.2372 82.4821 21.1937 84.9278 23.1067C87.3735 25.0196 88.5964 27.7914 88.5964 31.4222V42.2557C88.5964 43.4269 89.1971 44.0125 90.3985 44.0125H92.9729V50.1028H87.5666C85.979 50.1028 84.6704 49.7514 83.6406 49.0487C82.6108 48.346 82.0959 47.409 82.0959 46.2378V46.1792H80.8731C80.7014 46.6477 80.3153 47.2724 79.7146 48.0532C79.1139 48.7949 78.1699 49.4586 76.8827 50.0442C75.5954 50.6298 73.8362 50.9226 71.6051 50.9226ZM73.021 44.9495C75.2951 44.9495 77.1401 44.3834 78.5561 43.2513C80.0149 42.0801 80.7443 40.538 80.7443 38.625V38.0394H72.5705C71.0687 38.0394 69.8888 38.3322 69.0306 38.9178C68.1725 39.5034 67.7434 40.3233 67.7434 41.3773C67.7434 42.4314 68.1939 43.2903 69.095 43.954C69.996 44.6177 71.3047 44.9495 73.021 44.9495ZM93.1097 50.1028V21.0571H101.09V24.3364H102.249C102.721 23.1652 103.493 22.3063 104.566 21.7598C105.682 21.2132 106.969 20.9399 108.428 20.9399H112.289V27.4987H108.299C106.239 27.4987 104.545 28.0062 103.214 29.0212C101.884 29.9972 101.219 31.5198 101.219 33.5889V50.1028H93.1097ZM112.835 50.1028V21.0571H120.945V50.1028H112.835ZM116.89 17.6606C115.431 17.6606 114.187 17.2312 113.157 16.3723C112.17 15.5134 111.677 14.3812 111.677 12.9758C111.677 11.5704 112.17 10.4382 113.157 9.57933C114.187 8.72045 115.431 8.29102 116.89 8.29102C118.392 8.29102 119.636 8.72045 120.623 9.57933C121.61 10.4382 122.103 11.5704 122.103 12.9758C122.103 14.3812 121.61 15.5134 120.623 16.3723C119.636 17.2312 118.392 17.6606 116.89 17.6606ZM141.001 50.9226C135.423 50.9226 131.004 49.5172 127.743 46.7063C124.482 43.8564 122.852 39.7962 122.852 34.5258V24.6878C122.852 19.4174 124.482 15.3768 127.743 12.5659C131.004 9.71597 135.423 8.29102 141.001 8.29102C146.536 8.29102 150.806 9.67693 153.809 12.4488C156.856 15.1816 158.379 18.9489 158.379 23.7508V24.1022H150.012V23.5166C150.012 21.0961 149.261 19.1051 147.759 17.5435C146.3 15.9819 144.048 15.2011 141.001 15.2011C137.998 15.2011 135.638 16.0404 133.922 17.7192C132.205 19.3979 131.347 21.6817 131.347 24.5707V34.643C131.347 37.4929 132.205 39.7767 133.922 41.4945C135.638 43.1732 137.998 44.0125 141.001 44.0125C144.048 44.0125 146.3 43.2317 147.759 41.6701C149.261 40.0695 150.012 38.0785 150.012 35.697V34.643H158.379V35.4628C158.379 40.2647 156.856 44.0516 153.809 46.8234C150.806 49.5562 146.536 50.9226 141.001 50.9226ZM174.955 50.9226C171.78 50.9226 168.927 50.337 166.395 49.1658C163.864 47.9946 161.869 46.2964 160.41 44.0711C158.951 41.8458 158.222 39.1716 158.222 36.0484V35.1114C158.222 31.9882 158.951 29.314 160.41 27.0887C161.869 24.8635 163.864 23.1652 166.395 21.994C168.927 20.8228 171.78 20.2372 174.955 20.2372C178.131 20.2372 180.984 20.8228 183.515 21.994C186.047 23.1652 188.042 24.8635 189.501 27.0887C190.96 29.314 191.689 31.9882 191.689 35.1114V36.0484C191.689 39.1716 190.96 41.8458 189.501 44.0711C188.042 46.2964 186.047 47.9946 183.515 49.1658C180.984 50.337 178.131 50.9226 174.955 50.9226ZM174.955 44.3639C177.444 44.3639 179.504 43.6417 181.134 42.1972C182.765 40.7137 183.58 38.6055 183.58 35.8727V35.2871C183.58 32.5543 182.765 30.4657 181.134 29.0212C179.547 27.5377 177.487 26.7959 174.955 26.7959C172.467 26.7959 170.407 27.5377 168.777 29.0212C167.146 30.4657 166.331 32.5543 166.331 35.2871V35.8727C166.331 38.6055 167.146 40.7137 168.777 42.1972C170.407 43.6417 172.467 44.3639 174.955 44.3639ZM193.382 50.1028V21.0571H201.492V50.1028H193.382ZM197.437 17.6606C195.978 17.6606 194.734 17.2312 193.704 16.3723C192.717 15.5134 192.224 14.3812 192.224 12.9758C192.224 11.5704 192.717 10.4382 193.704 9.57933C194.734 8.72045 195.978 8.29102 197.437 8.29102C198.939 8.29102 200.183 8.72045 201.17 9.57933C202.157 10.4382 202.65 11.5704 202.65 12.9758C202.65 14.3812 202.157 15.5134 201.17 16.3723C200.183 17.2312 198.939 17.6606 197.437 17.6606ZM204.686 50.1028V21.0571H212.667V24.8635H213.825C214.34 23.8484 215.305 22.8919 216.721 21.994C218.137 21.0571 220.283 20.5886 223.157 20.5886C225.646 20.5886 227.813 21.1156 229.658 22.1697C231.546 23.1847 233.005 24.6097 234.034 26.4446C235.064 28.2404 235.579 30.3486 235.579 32.769V50.1028H227.47V33.3546C227.47 31.1684 226.869 29.5287 225.667 28.4356C224.509 27.3425 222.836 26.7959 220.647 26.7959C218.159 26.7959 216.228 27.5572 214.855 29.0798C213.482 30.5633 212.795 32.6519 212.795 35.3457V50.1028H204.686Z" stroke="#F7F7F7" stroke-width="4.55501" mask="url(#path-1-outside-1_1453_4599)"/>
<mask id="path-2-outside-2_1453_4599" maskUnits="userSpaceOnUse" x="12.7363" y="4.92187" width="219" height="47" fill="black">
<rect fill="white" x="12.7363" y="4.92187" width="219" height="47"/>
<path d="M13.7363 50.0565L13.7363 19.3971L21.4911 19.3971L21.4911 22.7351H22.6168C23.1588 21.7048 24.0552 20.8189 25.306 20.0771C26.5567 19.2941 28.2036 18.9026 30.2465 18.9026C32.4562 18.9026 34.2281 19.3353 35.5623 20.2007C36.8964 21.0249 37.9179 22.1169 38.6266 23.4768L39.7523 23.4768C40.4611 22.1581 41.4617 21.0661 42.7542 20.2007C44.0467 19.3353 45.8811 18.9026 48.2576 18.9026C50.1754 18.9026 51.9057 19.3147 53.4483 20.1389C55.0326 20.9219 56.2833 22.1375 57.2006 23.7859C58.1595 25.393 58.639 27.4329 58.639 29.9054L58.639 50.0565L50.7591 50.0565L50.7591 30.4617C50.7591 28.7721 50.3213 27.5153 49.4458 26.6911C48.5703 25.8257 47.3403 25.393 45.756 25.393C43.9633 25.393 42.5666 25.97 41.566 27.1238C40.607 28.2364 40.1276 29.8436 40.1276 31.9452L40.1276 50.0565L32.2477 50.0565L32.2477 30.4617C32.2477 28.7721 31.81 27.5153 30.9344 26.6911C30.0589 25.8257 28.829 25.393 27.2446 25.393C25.4519 25.393 24.0552 25.97 23.0546 27.1238C22.0956 28.2364 21.6162 29.8436 21.6162 31.9452L21.6162 50.0565L13.7363 50.0565ZM71.1164 50.9219C68.9067 50.9219 66.9263 50.551 65.1752 49.8092C63.4241 49.0263 62.0274 47.9136 60.9851 46.4713C59.9845 44.9878 59.4842 43.1952 59.4842 41.0936C59.4842 38.9919 59.9845 37.2406 60.9851 35.8395C62.0274 34.3971 63.445 33.3257 65.2378 32.6252C67.0722 31.8834 69.1568 31.5125 71.4916 31.5125L79.9968 31.5125L79.9968 29.7818C79.9968 28.3395 79.5382 27.165 78.621 26.2584C77.7038 25.3106 76.2445 24.8367 74.2433 24.8367C72.2838 24.8367 70.8245 25.29 69.8656 26.1966C68.9067 27.062 68.2813 28.1952 67.9894 29.5963L60.735 27.1856C61.2353 25.6197 62.0274 24.198 63.1114 22.9205C64.2371 21.6018 65.7172 20.551 67.5517 19.768C69.4278 18.9439 71.7001 18.5318 74.3684 18.5318C78.4542 18.5318 81.6854 19.5414 84.0618 21.5606C86.4383 23.5798 87.6265 26.5057 87.6265 30.3381L87.6265 41.7735C87.6265 43.0098 88.2102 43.6279 89.3776 43.6279L91.8791 43.6279L91.8791 50.0565L86.6259 50.0565C85.0833 50.0565 83.8117 49.6856 82.8111 48.9439C81.8105 48.2021 81.3101 47.2131 81.3101 45.9768L81.3101 45.915H80.1219C79.9551 46.4095 79.5799 47.0688 78.9962 47.893C78.4125 48.676 77.4953 49.3765 76.2445 49.9947C74.9938 50.6128 73.2844 50.9219 71.1164 50.9219ZM72.4922 44.6169C74.7019 44.6169 76.4947 44.0194 77.8705 42.8243C79.2881 41.5881 79.9968 39.9603 79.9968 37.9411L79.9968 37.323L72.0544 37.323C70.5952 37.323 69.4487 37.632 68.6148 38.2502C67.781 38.8683 67.3641 39.7337 67.3641 40.8463C67.3641 41.959 67.8018 42.8656 68.6774 43.5661C69.5529 44.2667 70.8245 44.6169 72.4922 44.6169ZM92.012 50.0565L92.012 19.3971L99.7668 19.3971L99.7668 22.8587H100.893C101.351 21.6224 102.102 20.7158 103.144 20.1389C104.228 19.562 105.479 19.2735 106.896 19.2735L110.649 19.2735L110.649 26.1966L106.771 26.1966C104.77 26.1966 103.123 26.7323 101.831 27.8037C100.538 28.834 99.8919 30.4411 99.8919 32.6252L99.8919 50.0565L92.012 50.0565ZM111.179 50.0565L111.179 19.3971L119.059 19.3971L119.059 50.0565L111.179 50.0565ZM115.119 15.812C113.702 15.812 112.492 15.3587 111.492 14.4521C110.533 13.5455 110.053 12.3504 110.053 10.8669C110.053 9.38342 110.533 8.18836 111.492 7.28177C112.492 6.37517 113.702 5.92188 115.119 5.92188C116.578 5.92188 117.787 6.37517 118.746 7.28177C119.705 8.18836 120.185 9.38342 120.185 10.8669C120.185 12.3504 119.705 13.5455 118.746 14.4521C117.787 15.3587 116.578 15.812 115.119 15.812ZM138.548 50.9219C133.128 50.9219 128.833 49.4384 125.665 46.4713C122.496 43.4631 120.912 39.1774 120.912 33.6142L120.912 23.2296C120.912 17.6664 122.496 13.4013 125.665 10.4342C128.833 7.426 133.128 5.92188 138.548 5.92188C143.926 5.92188 148.074 7.38479 150.993 10.3106C153.953 13.1952 155.433 17.1719 155.433 22.2406L155.433 22.6114L147.303 22.6114L147.303 21.9933C147.303 19.4384 146.573 17.3367 145.114 15.6884C143.697 14.04 141.508 13.2158 138.548 13.2158C135.629 13.2158 133.336 14.1018 131.668 15.8738C130.001 17.6458 129.167 20.0565 129.167 23.1059L129.167 33.7378C129.167 36.746 130.001 39.1568 131.668 40.97C133.336 42.7419 135.629 43.6279 138.548 43.6279C141.508 43.6279 143.697 42.8037 145.114 41.1554C146.573 39.4658 147.303 37.3642 147.303 34.8504L147.303 33.7378L155.433 33.7378L155.433 34.6032C155.433 39.6719 153.953 43.6691 150.993 46.595C148.074 49.4796 143.926 50.9219 138.548 50.9219ZM171.54 50.9219C168.455 50.9219 165.682 50.3037 163.222 49.0675C160.763 47.8312 158.824 46.0386 157.406 43.6897C155.989 41.3408 155.28 38.518 155.28 35.2213L155.28 34.2323C155.28 30.9356 155.989 28.1128 157.406 25.7639C158.824 23.415 160.763 21.6224 163.222 20.3862C165.682 19.1499 168.455 18.5318 171.54 18.5318C174.625 18.5318 177.398 19.1499 179.858 20.3862C182.317 21.6224 184.256 23.415 185.674 25.7639C187.091 28.1128 187.8 30.9356 187.8 34.2323L187.8 35.2213C187.8 38.518 187.091 41.3408 185.674 43.6897C184.256 46.0386 182.317 47.8312 179.858 49.0675C177.398 50.3037 174.625 50.9219 171.54 50.9219ZM171.54 43.9988C173.958 43.9988 175.959 43.2364 177.544 41.7117C179.128 40.1458 179.92 37.9205 179.92 35.0359L179.92 34.4178C179.92 31.5331 179.128 29.3285 177.544 27.8037C176.001 26.2378 174 25.4548 171.54 25.4548C169.122 25.4548 167.121 26.2378 165.536 27.8037C163.952 29.3285 163.16 31.5331 163.16 34.4178L163.16 35.0359C163.16 37.9205 163.952 40.1458 165.536 41.7117C167.121 43.2364 169.122 43.9988 171.54 43.9988ZM189.445 50.0565L189.445 19.3971L197.325 19.3971L197.325 50.0565L189.445 50.0565ZM193.385 15.812C191.967 15.812 190.758 15.3587 189.758 14.4521C188.799 13.5455 188.319 12.3504 188.319 10.8669C188.319 9.38342 188.799 8.18836 189.758 7.28177C190.758 6.37517 191.967 5.92188 193.385 5.92188C194.844 5.92188 196.053 6.37517 197.012 7.28177C197.971 8.18836 198.451 9.38342 198.451 10.8669C198.451 12.3504 197.971 13.5455 197.012 14.4521C196.053 15.3587 194.844 15.812 193.385 15.812ZM200.428 50.0565L200.428 19.3971L208.183 19.3971L208.183 23.415H209.309C209.809 22.3436 210.747 21.334 212.123 20.3862C213.499 19.3971 215.584 18.9026 218.377 18.9026C220.795 18.9026 222.901 19.459 224.693 20.5716C226.528 21.643 227.945 23.1471 228.946 25.084C229.947 26.9796 230.447 29.2048 230.447 31.7598L230.447 50.0565L222.567 50.0565L222.567 32.3779C222.567 30.0702 221.983 28.3395 220.816 27.1856C219.69 26.0318 218.064 25.4548 215.938 25.4548C213.52 25.4548 211.644 26.2584 210.309 27.8656C208.975 29.4315 208.308 31.6362 208.308 34.4796L208.308 50.0565L200.428 50.0565Z"/>
</mask>
<path d="M13.7363 50.0565L13.7363 19.3971L21.4911 19.3971L21.4911 22.7351H22.6168C23.1588 21.7048 24.0552 20.8189 25.306 20.0771C26.5567 19.2941 28.2036 18.9026 30.2465 18.9026C32.4562 18.9026 34.2281 19.3353 35.5623 20.2007C36.8964 21.0249 37.9179 22.1169 38.6266 23.4768L39.7523 23.4768C40.4611 22.1581 41.4617 21.0661 42.7542 20.2007C44.0467 19.3353 45.8811 18.9026 48.2576 18.9026C50.1754 18.9026 51.9057 19.3147 53.4483 20.1389C55.0326 20.9219 56.2833 22.1375 57.2006 23.7859C58.1595 25.393 58.639 27.4329 58.639 29.9054L58.639 50.0565L50.7591 50.0565L50.7591 30.4617C50.7591 28.7721 50.3213 27.5153 49.4458 26.6911C48.5703 25.8257 47.3403 25.393 45.756 25.393C43.9633 25.393 42.5666 25.97 41.566 27.1238C40.607 28.2364 40.1276 29.8436 40.1276 31.9452L40.1276 50.0565L32.2477 50.0565L32.2477 30.4617C32.2477 28.7721 31.81 27.5153 30.9344 26.6911C30.0589 25.8257 28.829 25.393 27.2446 25.393C25.4519 25.393 24.0552 25.97 23.0546 27.1238C22.0956 28.2364 21.6162 29.8436 21.6162 31.9452L21.6162 50.0565L13.7363 50.0565ZM71.1164 50.9219C68.9067 50.9219 66.9263 50.551 65.1752 49.8092C63.4241 49.0263 62.0274 47.9136 60.9851 46.4713C59.9845 44.9878 59.4842 43.1952 59.4842 41.0936C59.4842 38.9919 59.9845 37.2406 60.9851 35.8395C62.0274 34.3971 63.445 33.3257 65.2378 32.6252C67.0722 31.8834 69.1568 31.5125 71.4916 31.5125L79.9968 31.5125L79.9968 29.7818C79.9968 28.3395 79.5382 27.165 78.621 26.2584C77.7038 25.3106 76.2445 24.8367 74.2433 24.8367C72.2838 24.8367 70.8245 25.29 69.8656 26.1966C68.9067 27.062 68.2813 28.1952 67.9894 29.5963L60.735 27.1856C61.2353 25.6197 62.0274 24.198 63.1114 22.9205C64.2371 21.6018 65.7172 20.551 67.5517 19.768C69.4278 18.9439 71.7001 18.5318 74.3684 18.5318C78.4542 18.5318 81.6854 19.5414 84.0618 21.5606C86.4383 23.5798 87.6265 26.5057 87.6265 30.3381L87.6265 41.7735C87.6265 43.0098 88.2102 43.6279 89.3776 43.6279L91.8791 43.6279L91.8791 50.0565L86.6259 50.0565C85.0833 50.0565 83.8117 49.6856 82.8111 48.9439C81.8105 48.2021 81.3101 47.2131 81.3101 45.9768L81.3101 45.915H80.1219C79.9551 46.4095 79.5799 47.0688 78.9962 47.893C78.4125 48.676 77.4953 49.3765 76.2445 49.9947C74.9938 50.6128 73.2844 50.9219 71.1164 50.9219ZM72.4922 44.6169C74.7019 44.6169 76.4947 44.0194 77.8705 42.8243C79.2881 41.5881 79.9968 39.9603 79.9968 37.9411L79.9968 37.323L72.0544 37.323C70.5952 37.323 69.4487 37.632 68.6148 38.2502C67.781 38.8683 67.3641 39.7337 67.3641 40.8463C67.3641 41.959 67.8018 42.8656 68.6774 43.5661C69.5529 44.2667 70.8245 44.6169 72.4922 44.6169ZM92.012 50.0565L92.012 19.3971L99.7668 19.3971L99.7668 22.8587H100.893C101.351 21.6224 102.102 20.7158 103.144 20.1389C104.228 19.562 105.479 19.2735 106.896 19.2735L110.649 19.2735L110.649 26.1966L106.771 26.1966C104.77 26.1966 103.123 26.7323 101.831 27.8037C100.538 28.834 99.8919 30.4411 99.8919 32.6252L99.8919 50.0565L92.012 50.0565ZM111.179 50.0565L111.179 19.3971L119.059 19.3971L119.059 50.0565L111.179 50.0565ZM115.119 15.812C113.702 15.812 112.492 15.3587 111.492 14.4521C110.533 13.5455 110.053 12.3504 110.053 10.8669C110.053 9.38342 110.533 8.18836 111.492 7.28177C112.492 6.37517 113.702 5.92188 115.119 5.92188C116.578 5.92188 117.787 6.37517 118.746 7.28177C119.705 8.18836 120.185 9.38342 120.185 10.8669C120.185 12.3504 119.705 13.5455 118.746 14.4521C117.787 15.3587 116.578 15.812 115.119 15.812ZM138.548 50.9219C133.128 50.9219 128.833 49.4384 125.665 46.4713C122.496 43.4631 120.912 39.1774 120.912 33.6142L120.912 23.2296C120.912 17.6664 122.496 13.4013 125.665 10.4342C128.833 7.426 133.128 5.92188 138.548 5.92188C143.926 5.92188 148.074 7.38479 150.993 10.3106C153.953 13.1952 155.433 17.1719 155.433 22.2406L155.433 22.6114L147.303 22.6114L147.303 21.9933C147.303 19.4384 146.573 17.3367 145.114 15.6884C143.697 14.04 141.508 13.2158 138.548 13.2158C135.629 13.2158 133.336 14.1018 131.668 15.8738C130.001 17.6458 129.167 20.0565 129.167 23.1059L129.167 33.7378C129.167 36.746 130.001 39.1568 131.668 40.97C133.336 42.7419 135.629 43.6279 138.548 43.6279C141.508 43.6279 143.697 42.8037 145.114 41.1554C146.573 39.4658 147.303 37.3642 147.303 34.8504L147.303 33.7378L155.433 33.7378L155.433 34.6032C155.433 39.6719 153.953 43.6691 150.993 46.595C148.074 49.4796 143.926 50.9219 138.548 50.9219ZM171.54 50.9219C168.455 50.9219 165.682 50.3037 163.222 49.0675C160.763 47.8312 158.824 46.0386 157.406 43.6897C155.989 41.3408 155.28 38.518 155.28 35.2213L155.28 34.2323C155.28 30.9356 155.989 28.1128 157.406 25.7639C158.824 23.415 160.763 21.6224 163.222 20.3862C165.682 19.1499 168.455 18.5318 171.54 18.5318C174.625 18.5318 177.398 19.1499 179.858 20.3862C182.317 21.6224 184.256 23.415 185.674 25.7639C187.091 28.1128 187.8 30.9356 187.8 34.2323L187.8 35.2213C187.8 38.518 187.091 41.3408 185.674 43.6897C184.256 46.0386 182.317 47.8312 179.858 49.0675C177.398 50.3037 174.625 50.9219 171.54 50.9219ZM171.54 43.9988C173.958 43.9988 175.959 43.2364 177.544 41.7117C179.128 40.1458 179.92 37.9205 179.92 35.0359L179.92 34.4178C179.92 31.5331 179.128 29.3285 177.544 27.8037C176.001 26.2378 174 25.4548 171.54 25.4548C169.122 25.4548 167.121 26.2378 165.536 27.8037C163.952 29.3285 163.16 31.5331 163.16 34.4178L163.16 35.0359C163.16 37.9205 163.952 40.1458 165.536 41.7117C167.121 43.2364 169.122 43.9988 171.54 43.9988ZM189.445 50.0565L189.445 19.3971L197.325 19.3971L197.325 50.0565L189.445 50.0565ZM193.385 15.812C191.967 15.812 190.758 15.3587 189.758 14.4521C188.799 13.5455 188.319 12.3504 188.319 10.8669C188.319 9.38342 188.799 8.18836 189.758 7.28177C190.758 6.37517 191.967 5.92188 193.385 5.92188C194.844 5.92188 196.053 6.37517 197.012 7.28177C197.971 8.18836 198.451 9.38342 198.451 10.8669C198.451 12.3504 197.971 13.5455 197.012 14.4521C196.053 15.3587 194.844 15.812 193.385 15.812ZM200.428 50.0565L200.428 19.3971L208.183 19.3971L208.183 23.415H209.309C209.809 22.3436 210.747 21.334 212.123 20.3862C213.499 19.3971 215.584 18.9026 218.377 18.9026C220.795 18.9026 222.901 19.459 224.693 20.5716C226.528 21.643 227.945 23.1471 228.946 25.084C229.947 26.9796 230.447 29.2048 230.447 31.7598L230.447 50.0565L222.567 50.0565L222.567 32.3779C222.567 30.0702 221.983 28.3395 220.816 27.1856C219.69 26.0318 218.064 25.4548 215.938 25.4548C213.52 25.4548 211.644 26.2584 210.309 27.8656C208.975 29.4315 208.308 31.6362 208.308 34.4796L208.308 50.0565L200.428 50.0565Z" fill="url(#paint0_linear_1453_4599)"/>
<path d="M13.7363 50.0565L13.7363 19.3971L21.4911 19.3971L21.4911 22.7351H22.6168C23.1588 21.7048 24.0552 20.8189 25.306 20.0771C26.5567 19.2941 28.2036 18.9026 30.2465 18.9026C32.4562 18.9026 34.2281 19.3353 35.5623 20.2007C36.8964 21.0249 37.9179 22.1169 38.6266 23.4768L39.7523 23.4768C40.4611 22.1581 41.4617 21.0661 42.7542 20.2007C44.0467 19.3353 45.8811 18.9026 48.2576 18.9026C50.1754 18.9026 51.9057 19.3147 53.4483 20.1389C55.0326 20.9219 56.2833 22.1375 57.2006 23.7859C58.1595 25.393 58.639 27.4329 58.639 29.9054L58.639 50.0565L50.7591 50.0565L50.7591 30.4617C50.7591 28.7721 50.3213 27.5153 49.4458 26.6911C48.5703 25.8257 47.3403 25.393 45.756 25.393C43.9633 25.393 42.5666 25.97 41.566 27.1238C40.607 28.2364 40.1276 29.8436 40.1276 31.9452L40.1276 50.0565L32.2477 50.0565L32.2477 30.4617C32.2477 28.7721 31.81 27.5153 30.9344 26.6911C30.0589 25.8257 28.829 25.393 27.2446 25.393C25.4519 25.393 24.0552 25.97 23.0546 27.1238C22.0956 28.2364 21.6162 29.8436 21.6162 31.9452L21.6162 50.0565L13.7363 50.0565ZM71.1164 50.9219C68.9067 50.9219 66.9263 50.551 65.1752 49.8092C63.4241 49.0263 62.0274 47.9136 60.9851 46.4713C59.9845 44.9878 59.4842 43.1952 59.4842 41.0936C59.4842 38.9919 59.9845 37.2406 60.9851 35.8395C62.0274 34.3971 63.445 33.3257 65.2378 32.6252C67.0722 31.8834 69.1568 31.5125 71.4916 31.5125L79.9968 31.5125L79.9968 29.7818C79.9968 28.3395 79.5382 27.165 78.621 26.2584C77.7038 25.3106 76.2445 24.8367 74.2433 24.8367C72.2838 24.8367 70.8245 25.29 69.8656 26.1966C68.9067 27.062 68.2813 28.1952 67.9894 29.5963L60.735 27.1856C61.2353 25.6197 62.0274 24.198 63.1114 22.9205C64.2371 21.6018 65.7172 20.551 67.5517 19.768C69.4278 18.9439 71.7001 18.5318 74.3684 18.5318C78.4542 18.5318 81.6854 19.5414 84.0618 21.5606C86.4383 23.5798 87.6265 26.5057 87.6265 30.3381L87.6265 41.7735C87.6265 43.0098 88.2102 43.6279 89.3776 43.6279L91.8791 43.6279L91.8791 50.0565L86.6259 50.0565C85.0833 50.0565 83.8117 49.6856 82.8111 48.9439C81.8105 48.2021 81.3101 47.2131 81.3101 45.9768L81.3101 45.915H80.1219C79.9551 46.4095 79.5799 47.0688 78.9962 47.893C78.4125 48.676 77.4953 49.3765 76.2445 49.9947C74.9938 50.6128 73.2844 50.9219 71.1164 50.9219ZM72.4922 44.6169C74.7019 44.6169 76.4947 44.0194 77.8705 42.8243C79.2881 41.5881 79.9968 39.9603 79.9968 37.9411L79.9968 37.323L72.0544 37.323C70.5952 37.323 69.4487 37.632 68.6148 38.2502C67.781 38.8683 67.3641 39.7337 67.3641 40.8463C67.3641 41.959 67.8018 42.8656 68.6774 43.5661C69.5529 44.2667 70.8245 44.6169 72.4922 44.6169ZM92.012 50.0565L92.012 19.3971L99.7668 19.3971L99.7668 22.8587H100.893C101.351 21.6224 102.102 20.7158 103.144 20.1389C104.228 19.562 105.479 19.2735 106.896 19.2735L110.649 19.2735L110.649 26.1966L106.771 26.1966C104.77 26.1966 103.123 26.7323 101.831 27.8037C100.538 28.834 99.8919 30.4411 99.8919 32.6252L99.8919 50.0565L92.012 50.0565ZM111.179 50.0565L111.179 19.3971L119.059 19.3971L119.059 50.0565L111.179 50.0565ZM115.119 15.812C113.702 15.812 112.492 15.3587 111.492 14.4521C110.533 13.5455 110.053 12.3504 110.053 10.8669C110.053 9.38342 110.533 8.18836 111.492 7.28177C112.492 6.37517 113.702 5.92188 115.119 5.92188C116.578 5.92188 117.787 6.37517 118.746 7.28177C119.705 8.18836 120.185 9.38342 120.185 10.8669C120.185 12.3504 119.705 13.5455 118.746 14.4521C117.787 15.3587 116.578 15.812 115.119 15.812ZM138.548 50.9219C133.128 50.9219 128.833 49.4384 125.665 46.4713C122.496 43.4631 120.912 39.1774 120.912 33.6142L120.912 23.2296C120.912 17.6664 122.496 13.4013 125.665 10.4342C128.833 7.426 133.128 5.92188 138.548 5.92188C143.926 5.92188 148.074 7.38479 150.993 10.3106C153.953 13.1952 155.433 17.1719 155.433 22.2406L155.433 22.6114L147.303 22.6114L147.303 21.9933C147.303 19.4384 146.573 17.3367 145.114 15.6884C143.697 14.04 141.508 13.2158 138.548 13.2158C135.629 13.2158 133.336 14.1018 131.668 15.8738C130.001 17.6458 129.167 20.0565 129.167 23.1059L129.167 33.7378C129.167 36.746 130.001 39.1568 131.668 40.97C133.336 42.7419 135.629 43.6279 138.548 43.6279C141.508 43.6279 143.697 42.8037 145.114 41.1554C146.573 39.4658 147.303 37.3642 147.303 34.8504L147.303 33.7378L155.433 33.7378L155.433 34.6032C155.433 39.6719 153.953 43.6691 150.993 46.595C148.074 49.4796 143.926 50.9219 138.548 50.9219ZM171.54 50.9219C168.455 50.9219 165.682 50.3037 163.222 49.0675C160.763 47.8312 158.824 46.0386 157.406 43.6897C155.989 41.3408 155.28 38.518 155.28 35.2213L155.28 34.2323C155.28 30.9356 155.989 28.1128 157.406 25.7639C158.824 23.415 160.763 21.6224 163.222 20.3862C165.682 19.1499 168.455 18.5318 171.54 18.5318C174.625 18.5318 177.398 19.1499 179.858 20.3862C182.317 21.6224 184.256 23.415 185.674 25.7639C187.091 28.1128 187.8 30.9356 187.8 34.2323L187.8 35.2213C187.8 38.518 187.091 41.3408 185.674 43.6897C184.256 46.0386 182.317 47.8312 179.858 49.0675C177.398 50.3037 174.625 50.9219 171.54 50.9219ZM171.54 43.9988C173.958 43.9988 175.959 43.2364 177.544 41.7117C179.128 40.1458 179.92 37.9205 179.92 35.0359L179.92 34.4178C179.92 31.5331 179.128 29.3285 177.544 27.8037C176.001 26.2378 174 25.4548 171.54 25.4548C169.122 25.4548 167.121 26.2378 165.536 27.8037C163.952 29.3285 163.16 31.5331 163.16 34.4178L163.16 35.0359C163.16 37.9205 163.952 40.1458 165.536 41.7117C167.121 43.2364 169.122 43.9988 171.54 43.9988ZM189.445 50.0565L189.445 19.3971L197.325 19.3971L197.325 50.0565L189.445 50.0565ZM193.385 15.812C191.967 15.812 190.758 15.3587 189.758 14.4521C188.799 13.5455 188.319 12.3504 188.319 10.8669C188.319 9.38342 188.799 8.18836 189.758 7.28177C190.758 6.37517 191.967 5.92188 193.385 5.92188C194.844 5.92188 196.053 6.37517 197.012 7.28177C197.971 8.18836 198.451 9.38342 198.451 10.8669C198.451 12.3504 197.971 13.5455 197.012 14.4521C196.053 15.3587 194.844 15.812 193.385 15.812ZM200.428 50.0565L200.428 19.3971L208.183 19.3971L208.183 23.415H209.309C209.809 22.3436 210.747 21.334 212.123 20.3862C213.499 19.3971 215.584 18.9026 218.377 18.9026C220.795 18.9026 222.901 19.459 224.693 20.5716C226.528 21.643 227.945 23.1471 228.946 25.084C229.947 26.9796 230.447 29.2048 230.447 31.7598L230.447 50.0565L222.567 50.0565L222.567 32.3779C222.567 30.0702 221.983 28.3395 220.816 27.1856C219.69 26.0318 218.064 25.4548 215.938 25.4548C213.52 25.4548 211.644 26.2584 210.309 27.8656C208.975 29.4315 208.308 31.6362 208.308 34.4796L208.308 50.0565L200.428 50.0565Z" stroke="#F7F7F7" stroke-width="1.79605" mask="url(#path-2-outside-2_1453_4599)"/>
<defs>
<linearGradient id="paint0_linear_1453_4599" x1="214.194" y1="50.9219" x2="200.104" y2="-33.8885" gradientUnits="userSpaceOnUse">
<stop stop-color="#7C7D48"/>
<stop offset="0.234375" stop-color="#98996B"/>
<stop offset="0.442708" stop-color="#DBFF00"/>
<stop offset="0.682292" stop-color="#ACB78C"/>
<stop offset="1" stop-color="#FAFF00"/>
</linearGradient>
</defs>
</svg>
