<svg width="80" height="80" viewBox="0 0 80 80" fill="none" xmlns="http://www.w3.org/2000/svg">
<g clip-path="url(#clip0_1442_4498)">
<circle cx="40.0008" cy="40.0008" r="35.6" fill="white" stroke="black" stroke-width="3.2"/>
<g filter="url(#filter0_ddi_1442_4498)">
<path d="M71.4386 60.5L71.4386 55.5721L66.6711 54.8976L88.1992 41.1386L66.6711 49.6447L66.6711 31.6325L88.1992 41.1386L66.6711 25.2128L71.4386 24.4561L72.6482 19.5L53.1374 19.5L39.7729 45.3492L26.6084 19.5L7.08219 19.5L8.29173 24.4561L13.09 25.2128L-8.10078 41.1386L13.09 31.6325L13.09 49.6447L-8.10078 41.1386L13.09 54.7328L8.29173 55.5721L8.29173 60.5L17.5654 60.5L26.6084 60.5L26.6084 55.5721L21.7947 54.7273L21.7947 46.8709L21.7947 28.3561L35.5056 59.9368L44.8326 59.9368L58.3971 28.3561L58.3971 46.0261L58.3971 54.7273L53.1374 55.5721L53.1374 60.5L71.4386 60.5Z" fill="#060606"/>
<path d="M88.1992 41.1386L66.6711 54.8976L71.4386 55.5721L71.4386 60.5L53.1374 60.5L53.1374 55.5721L58.3971 54.7273L58.3971 46.0261L58.3971 28.3561L44.8326 59.9368L35.5056 59.9368L21.7947 28.3561L21.7947 46.8709L21.7947 54.7273L26.6084 55.5721L26.6084 60.5L17.5654 60.5L8.29173 60.5L8.29173 55.5721L13.09 54.7328L-8.10078 41.1386M88.1992 41.1386L66.6711 49.6447L66.6711 31.6325L88.1992 41.1386ZM88.1992 41.1386L66.6711 25.2128L71.4386 24.4561L72.6482 19.5L53.1374 19.5L39.7729 45.3492L26.6084 19.5L7.08219 19.5L8.29173 24.4561L13.09 25.2128L-8.10078 41.1386M-8.10078 41.1386L13.09 31.6325L13.09 49.6447L-8.10078 41.1386Z" stroke="#F7F7F7" stroke-width="0.8"/>
</g>
<g filter="url(#filter1_ddi_1442_4498)">
<mask id="path-6-outside-1_1442_4498" maskUnits="userSpaceOnUse" x="5.69922" y="31.9004" width="71" height="16" fill="black">
<rect fill="white" x="5.69922" y="31.9004" width="71" height="16"/>
<path d="M6.69922 46.9254L6.69922 37.1825L9.15042 37.1825L9.15042 38.2432H9.50624C9.67756 37.9159 9.9609 37.6343 10.3563 37.3986C10.7516 37.1498 11.2722 37.0254 11.9179 37.0254C12.6164 37.0254 13.1765 37.1629 13.5982 37.4379C14.0199 37.6998 14.3428 38.0468 14.5668 38.479H14.9226C15.1467 38.0599 15.4629 37.7129 15.8715 37.4379C16.28 37.1629 16.8599 37.0254 17.611 37.0254C18.2172 37.0254 18.7642 37.1563 19.2518 37.4182C19.7525 37.6671 20.1479 38.0534 20.4378 38.5772C20.7409 39.0879 20.8925 39.7361 20.8925 40.5218L20.8925 46.9254L18.4017 46.9254L18.4017 40.6986C18.4017 40.1617 18.2634 39.7623 17.9866 39.5004C17.7099 39.2254 17.3211 39.0879 16.8203 39.0879C16.2536 39.0879 15.8122 39.2712 15.4959 39.6379C15.1928 39.9915 15.0412 40.5022 15.0412 41.17L15.0412 46.9254H12.5505L12.5505 40.6986C12.5505 40.1617 12.4121 39.7623 12.1354 39.5004C11.8586 39.2254 11.4698 39.0879 10.9691 39.0879C10.4024 39.0879 9.9609 39.2712 9.64462 39.6379C9.34151 39.9915 9.18996 40.5022 9.18996 41.17L9.18996 46.9254H6.69922ZM24.8365 47.2004C24.138 47.2004 23.512 47.0825 22.9585 46.8468C22.405 46.598 21.9636 46.2444 21.6341 45.7861C21.3178 45.3147 21.1597 44.745 21.1597 44.0772C21.1597 43.4093 21.3178 42.8528 21.6341 42.4075C21.9636 41.9492 22.4116 41.6087 22.9783 41.3861C23.5582 41.1504 24.2171 41.0325 24.9551 41.0325L27.6435 41.0325L27.6435 40.4825C27.6435 40.0242 27.4985 39.651 27.2086 39.3629C26.9187 39.0617 26.4574 38.9111 25.8249 38.9111C25.2055 38.9111 24.7442 39.0552 24.4411 39.3432C24.138 39.6182 23.9403 39.9784 23.8481 40.4236L21.555 39.6575C21.7132 39.1599 21.9636 38.7081 22.3062 38.3022C22.662 37.8831 23.1298 37.5492 23.7097 37.3004C24.3027 37.0385 25.021 36.9075 25.8644 36.9075C27.1559 36.9075 28.1772 37.2284 28.9284 37.87C29.6796 38.5117 30.0552 39.4415 30.0552 40.6593L30.0552 44.2932C30.0552 44.6861 30.2397 44.8825 30.6087 44.8825H31.3994L31.3994 46.9254H29.7389C29.2513 46.9254 28.8493 46.8075 28.533 46.5718C28.2168 46.3361 28.0586 46.0218 28.0586 45.629L28.0586 45.6093H27.683C27.6303 45.7665 27.5117 45.976 27.3272 46.2379C27.1427 46.4867 26.8528 46.7093 26.4574 46.9057C26.0621 47.1022 25.5218 47.2004 24.8365 47.2004ZM25.2714 45.1968C25.9698 45.1968 26.5365 45.0069 26.9714 44.6272C27.4195 44.2343 27.6435 43.7171 27.6435 43.0754L27.6435 42.879L25.133 42.879C24.6717 42.879 24.3093 42.9772 24.0458 43.1736C23.7822 43.37 23.6504 43.645 23.6504 43.9986C23.6504 44.3522 23.7888 44.6403 24.0655 44.8629C24.3423 45.0855 24.7442 45.1968 25.2714 45.1968ZM31.4414 46.9254L31.4414 37.1825L33.8926 37.1825L33.8926 38.2825H34.2484C34.3934 37.8897 34.6306 37.6016 34.96 37.4182C35.3027 37.2349 35.698 37.1432 36.1461 37.1432H37.3322L37.3322 39.3432H36.1066C35.474 39.3432 34.9535 39.5135 34.5449 39.854C34.1364 40.1813 33.9321 40.6921 33.9321 41.3861L33.9321 46.9254H31.4414ZM37.4999 46.9254L37.4999 37.1825L39.9906 37.1825L39.9906 46.9254H37.4999ZM38.7453 36.0432C38.2972 36.0432 37.915 35.8992 37.5987 35.6111C37.2956 35.323 37.1441 34.9432 37.1441 34.4718C37.1441 34.0004 37.2956 33.6206 37.5987 33.3325C37.915 33.0444 38.2972 32.9004 38.7453 32.9004C39.2065 32.9004 39.5887 33.0444 39.8918 33.3325C40.1949 33.6206 40.3465 34.0004 40.3465 34.4718C40.3465 34.9432 40.1949 35.323 39.8918 35.6111C39.5887 35.8992 39.2065 36.0432 38.7453 36.0432ZM46.1508 47.2004C44.4376 47.2004 43.0802 46.729 42.0786 45.7861C41.077 44.8302 40.5763 43.4682 40.5763 41.7004L40.5763 38.4004C40.5763 36.6325 41.077 35.2772 42.0786 34.3343C43.0802 33.3784 44.4376 32.9004 46.1508 32.9004C47.8508 32.9004 49.1621 33.3653 50.0846 34.295C51.0202 35.2117 51.4881 36.4754 51.4881 38.0861L51.4881 38.204L48.9183 38.204L48.9183 38.0075C48.9183 37.1956 48.6876 36.5278 48.2264 36.004C47.7783 35.4802 47.0864 35.2182 46.1508 35.2182C45.2283 35.2182 44.5035 35.4998 43.9763 36.0629C43.4492 36.626 43.1856 37.3921 43.1856 38.3611L43.1856 41.7397C43.1856 42.6956 43.4492 43.4617 43.9763 44.0379C44.5035 44.601 45.2283 44.8825 46.1508 44.8825C47.0864 44.8825 47.7783 44.6206 48.2264 44.0968C48.6876 43.5599 48.9183 42.8921 48.9183 42.0932L48.9183 41.7397L51.4881 41.7397L51.4881 42.0147C51.4881 43.6254 51.0202 44.8956 50.0846 45.8254C49.1621 46.7421 47.8508 47.2004 46.1508 47.2004ZM56.5794 47.2004C55.6041 47.2004 54.7278 47.004 53.9502 46.6111C53.1727 46.2182 52.5599 45.6486 52.1118 44.9022C51.6638 44.1557 51.4397 43.2587 51.4397 42.2111L51.4397 41.8968C51.4397 40.8492 51.6638 39.9522 52.1118 39.2057C52.5599 38.4593 53.1727 37.8897 53.9502 37.4968C54.7278 37.104 55.6041 36.9075 56.5794 36.9075C57.5546 36.9075 58.4309 37.104 59.2085 37.4968C59.986 37.8897 60.5988 38.4593 61.0469 39.2057C61.4949 39.9522 61.719 40.8492 61.719 41.8968L61.719 42.2111C61.719 43.2587 61.4949 44.1557 61.0469 44.9022C60.5988 45.6486 59.986 46.2182 59.2085 46.6111C58.4309 47.004 57.5546 47.2004 56.5794 47.2004ZM56.5794 45.0004C57.3437 45.0004 57.9763 44.7581 58.4771 44.2736C58.9778 43.776 59.2282 43.0688 59.2282 42.1522L59.2282 41.9557C59.2282 41.0391 58.9778 40.3385 58.4771 39.854C57.9895 39.3563 57.3569 39.1075 56.5794 39.1075C55.815 39.1075 55.1824 39.3563 54.6816 39.854C54.1809 40.3385 53.9305 41.0391 53.9305 41.9557L53.9305 42.1522C53.9305 43.0688 54.1809 43.776 54.6816 44.2736C55.1824 44.7581 55.815 45.0004 56.5794 45.0004ZM62.239 46.9254L62.239 37.1825L64.7297 37.1825L64.7297 46.9254H62.239ZM63.4843 36.0432C63.0363 36.0432 62.6541 35.8992 62.3378 35.6111C62.0347 35.323 61.8831 34.9432 61.8831 34.4718C61.8831 34.0004 62.0347 33.6206 62.3378 33.3325C62.6541 33.0444 63.0363 32.9004 63.4843 32.9004C63.9456 32.9004 64.3278 33.0444 64.6309 33.3325C64.934 33.6206 65.0855 34.0004 65.0855 34.4718C65.0855 34.9432 64.934 35.323 64.6309 35.6111C64.3278 35.8992 63.9456 36.0432 63.4843 36.0432ZM65.7107 46.9254L65.7107 37.1825L68.1619 37.1825L68.1619 38.4593H68.5177C68.6759 38.1188 68.9724 37.798 69.4073 37.4968C69.8422 37.1825 70.5011 37.0254 71.384 37.0254C72.1484 37.0254 72.8139 37.2022 73.3806 37.5557C73.9604 37.8962 74.4085 38.3742 74.7248 38.9897C75.0411 39.5921 75.1992 40.2992 75.1992 41.1111L75.1992 46.9254H72.7085L72.7085 41.3075C72.7085 40.5742 72.524 40.0242 72.155 39.6575C71.7992 39.2909 71.2852 39.1075 70.6131 39.1075C69.8487 39.1075 69.2557 39.3629 68.834 39.8736C68.4123 40.3712 68.2014 41.0718 68.2014 41.9754L68.2014 46.9254L65.7107 46.9254Z"/>
</mask>
<path d="M6.69922 46.9254L6.69922 37.1825L9.15042 37.1825L9.15042 38.2432H9.50624C9.67756 37.9159 9.9609 37.6343 10.3563 37.3986C10.7516 37.1498 11.2722 37.0254 11.9179 37.0254C12.6164 37.0254 13.1765 37.1629 13.5982 37.4379C14.0199 37.6998 14.3428 38.0468 14.5668 38.479H14.9226C15.1467 38.0599 15.4629 37.7129 15.8715 37.4379C16.28 37.1629 16.8599 37.0254 17.611 37.0254C18.2172 37.0254 18.7642 37.1563 19.2518 37.4182C19.7525 37.6671 20.1479 38.0534 20.4378 38.5772C20.7409 39.0879 20.8925 39.7361 20.8925 40.5218L20.8925 46.9254L18.4017 46.9254L18.4017 40.6986C18.4017 40.1617 18.2634 39.7623 17.9866 39.5004C17.7099 39.2254 17.3211 39.0879 16.8203 39.0879C16.2536 39.0879 15.8122 39.2712 15.4959 39.6379C15.1928 39.9915 15.0412 40.5022 15.0412 41.17L15.0412 46.9254H12.5505L12.5505 40.6986C12.5505 40.1617 12.4121 39.7623 12.1354 39.5004C11.8586 39.2254 11.4698 39.0879 10.9691 39.0879C10.4024 39.0879 9.9609 39.2712 9.64462 39.6379C9.34151 39.9915 9.18996 40.5022 9.18996 41.17L9.18996 46.9254H6.69922ZM24.8365 47.2004C24.138 47.2004 23.512 47.0825 22.9585 46.8468C22.405 46.598 21.9636 46.2444 21.6341 45.7861C21.3178 45.3147 21.1597 44.745 21.1597 44.0772C21.1597 43.4093 21.3178 42.8528 21.6341 42.4075C21.9636 41.9492 22.4116 41.6087 22.9783 41.3861C23.5582 41.1504 24.2171 41.0325 24.9551 41.0325L27.6435 41.0325L27.6435 40.4825C27.6435 40.0242 27.4985 39.651 27.2086 39.3629C26.9187 39.0617 26.4574 38.9111 25.8249 38.9111C25.2055 38.9111 24.7442 39.0552 24.4411 39.3432C24.138 39.6182 23.9403 39.9784 23.8481 40.4236L21.555 39.6575C21.7132 39.1599 21.9636 38.7081 22.3062 38.3022C22.662 37.8831 23.1298 37.5492 23.7097 37.3004C24.3027 37.0385 25.021 36.9075 25.8644 36.9075C27.1559 36.9075 28.1772 37.2284 28.9284 37.87C29.6796 38.5117 30.0552 39.4415 30.0552 40.6593L30.0552 44.2932C30.0552 44.6861 30.2397 44.8825 30.6087 44.8825H31.3994L31.3994 46.9254H29.7389C29.2513 46.9254 28.8493 46.8075 28.533 46.5718C28.2168 46.3361 28.0586 46.0218 28.0586 45.629L28.0586 45.6093H27.683C27.6303 45.7665 27.5117 45.976 27.3272 46.2379C27.1427 46.4867 26.8528 46.7093 26.4574 46.9057C26.0621 47.1022 25.5218 47.2004 24.8365 47.2004ZM25.2714 45.1968C25.9698 45.1968 26.5365 45.0069 26.9714 44.6272C27.4195 44.2343 27.6435 43.7171 27.6435 43.0754L27.6435 42.879L25.133 42.879C24.6717 42.879 24.3093 42.9772 24.0458 43.1736C23.7822 43.37 23.6504 43.645 23.6504 43.9986C23.6504 44.3522 23.7888 44.6403 24.0655 44.8629C24.3423 45.0855 24.7442 45.1968 25.2714 45.1968ZM31.4414 46.9254L31.4414 37.1825L33.8926 37.1825L33.8926 38.2825H34.2484C34.3934 37.8897 34.6306 37.6016 34.96 37.4182C35.3027 37.2349 35.698 37.1432 36.1461 37.1432H37.3322L37.3322 39.3432H36.1066C35.474 39.3432 34.9535 39.5135 34.5449 39.854C34.1364 40.1813 33.9321 40.6921 33.9321 41.3861L33.9321 46.9254H31.4414ZM37.4999 46.9254L37.4999 37.1825L39.9906 37.1825L39.9906 46.9254H37.4999ZM38.7453 36.0432C38.2972 36.0432 37.915 35.8992 37.5987 35.6111C37.2956 35.323 37.1441 34.9432 37.1441 34.4718C37.1441 34.0004 37.2956 33.6206 37.5987 33.3325C37.915 33.0444 38.2972 32.9004 38.7453 32.9004C39.2065 32.9004 39.5887 33.0444 39.8918 33.3325C40.1949 33.6206 40.3465 34.0004 40.3465 34.4718C40.3465 34.9432 40.1949 35.323 39.8918 35.6111C39.5887 35.8992 39.2065 36.0432 38.7453 36.0432ZM46.1508 47.2004C44.4376 47.2004 43.0802 46.729 42.0786 45.7861C41.077 44.8302 40.5763 43.4682 40.5763 41.7004L40.5763 38.4004C40.5763 36.6325 41.077 35.2772 42.0786 34.3343C43.0802 33.3784 44.4376 32.9004 46.1508 32.9004C47.8508 32.9004 49.1621 33.3653 50.0846 34.295C51.0202 35.2117 51.4881 36.4754 51.4881 38.0861L51.4881 38.204L48.9183 38.204L48.9183 38.0075C48.9183 37.1956 48.6876 36.5278 48.2264 36.004C47.7783 35.4802 47.0864 35.2182 46.1508 35.2182C45.2283 35.2182 44.5035 35.4998 43.9763 36.0629C43.4492 36.626 43.1856 37.3921 43.1856 38.3611L43.1856 41.7397C43.1856 42.6956 43.4492 43.4617 43.9763 44.0379C44.5035 44.601 45.2283 44.8825 46.1508 44.8825C47.0864 44.8825 47.7783 44.6206 48.2264 44.0968C48.6876 43.5599 48.9183 42.8921 48.9183 42.0932L48.9183 41.7397L51.4881 41.7397L51.4881 42.0147C51.4881 43.6254 51.0202 44.8956 50.0846 45.8254C49.1621 46.7421 47.8508 47.2004 46.1508 47.2004ZM56.5794 47.2004C55.6041 47.2004 54.7278 47.004 53.9502 46.6111C53.1727 46.2182 52.5599 45.6486 52.1118 44.9022C51.6638 44.1557 51.4397 43.2587 51.4397 42.2111L51.4397 41.8968C51.4397 40.8492 51.6638 39.9522 52.1118 39.2057C52.5599 38.4593 53.1727 37.8897 53.9502 37.4968C54.7278 37.104 55.6041 36.9075 56.5794 36.9075C57.5546 36.9075 58.4309 37.104 59.2085 37.4968C59.986 37.8897 60.5988 38.4593 61.0469 39.2057C61.4949 39.9522 61.719 40.8492 61.719 41.8968L61.719 42.2111C61.719 43.2587 61.4949 44.1557 61.0469 44.9022C60.5988 45.6486 59.986 46.2182 59.2085 46.6111C58.4309 47.004 57.5546 47.2004 56.5794 47.2004ZM56.5794 45.0004C57.3437 45.0004 57.9763 44.7581 58.4771 44.2736C58.9778 43.776 59.2282 43.0688 59.2282 42.1522L59.2282 41.9557C59.2282 41.0391 58.9778 40.3385 58.4771 39.854C57.9895 39.3563 57.3569 39.1075 56.5794 39.1075C55.815 39.1075 55.1824 39.3563 54.6816 39.854C54.1809 40.3385 53.9305 41.0391 53.9305 41.9557L53.9305 42.1522C53.9305 43.0688 54.1809 43.776 54.6816 44.2736C55.1824 44.7581 55.815 45.0004 56.5794 45.0004ZM62.239 46.9254L62.239 37.1825L64.7297 37.1825L64.7297 46.9254H62.239ZM63.4843 36.0432C63.0363 36.0432 62.6541 35.8992 62.3378 35.6111C62.0347 35.323 61.8831 34.9432 61.8831 34.4718C61.8831 34.0004 62.0347 33.6206 62.3378 33.3325C62.6541 33.0444 63.0363 32.9004 63.4843 32.9004C63.9456 32.9004 64.3278 33.0444 64.6309 33.3325C64.934 33.6206 65.0855 34.0004 65.0855 34.4718C65.0855 34.9432 64.934 35.323 64.6309 35.6111C64.3278 35.8992 63.9456 36.0432 63.4843 36.0432ZM65.7107 46.9254L65.7107 37.1825L68.1619 37.1825L68.1619 38.4593H68.5177C68.6759 38.1188 68.9724 37.798 69.4073 37.4968C69.8422 37.1825 70.5011 37.0254 71.384 37.0254C72.1484 37.0254 72.8139 37.2022 73.3806 37.5557C73.9604 37.8962 74.4085 38.3742 74.7248 38.9897C75.0411 39.5921 75.1992 40.2992 75.1992 41.1111L75.1992 46.9254H72.7085L72.7085 41.3075C72.7085 40.5742 72.524 40.0242 72.155 39.6575C71.7992 39.2909 71.2852 39.1075 70.6131 39.1075C69.8487 39.1075 69.2557 39.3629 68.834 39.8736C68.4123 40.3712 68.2014 41.0718 68.2014 41.9754L68.2014 46.9254L65.7107 46.9254Z" fill="black"/>
<path d="M6.69922 46.9254L6.69922 37.1825L9.15042 37.1825L9.15042 38.2432H9.50624C9.67756 37.9159 9.9609 37.6343 10.3563 37.3986C10.7516 37.1498 11.2722 37.0254 11.9179 37.0254C12.6164 37.0254 13.1765 37.1629 13.5982 37.4379C14.0199 37.6998 14.3428 38.0468 14.5668 38.479H14.9226C15.1467 38.0599 15.4629 37.7129 15.8715 37.4379C16.28 37.1629 16.8599 37.0254 17.611 37.0254C18.2172 37.0254 18.7642 37.1563 19.2518 37.4182C19.7525 37.6671 20.1479 38.0534 20.4378 38.5772C20.7409 39.0879 20.8925 39.7361 20.8925 40.5218L20.8925 46.9254L18.4017 46.9254L18.4017 40.6986C18.4017 40.1617 18.2634 39.7623 17.9866 39.5004C17.7099 39.2254 17.3211 39.0879 16.8203 39.0879C16.2536 39.0879 15.8122 39.2712 15.4959 39.6379C15.1928 39.9915 15.0412 40.5022 15.0412 41.17L15.0412 46.9254H12.5505L12.5505 40.6986C12.5505 40.1617 12.4121 39.7623 12.1354 39.5004C11.8586 39.2254 11.4698 39.0879 10.9691 39.0879C10.4024 39.0879 9.9609 39.2712 9.64462 39.6379C9.34151 39.9915 9.18996 40.5022 9.18996 41.17L9.18996 46.9254H6.69922ZM24.8365 47.2004C24.138 47.2004 23.512 47.0825 22.9585 46.8468C22.405 46.598 21.9636 46.2444 21.6341 45.7861C21.3178 45.3147 21.1597 44.745 21.1597 44.0772C21.1597 43.4093 21.3178 42.8528 21.6341 42.4075C21.9636 41.9492 22.4116 41.6087 22.9783 41.3861C23.5582 41.1504 24.2171 41.0325 24.9551 41.0325L27.6435 41.0325L27.6435 40.4825C27.6435 40.0242 27.4985 39.651 27.2086 39.3629C26.9187 39.0617 26.4574 38.9111 25.8249 38.9111C25.2055 38.9111 24.7442 39.0552 24.4411 39.3432C24.138 39.6182 23.9403 39.9784 23.8481 40.4236L21.555 39.6575C21.7132 39.1599 21.9636 38.7081 22.3062 38.3022C22.662 37.8831 23.1298 37.5492 23.7097 37.3004C24.3027 37.0385 25.021 36.9075 25.8644 36.9075C27.1559 36.9075 28.1772 37.2284 28.9284 37.87C29.6796 38.5117 30.0552 39.4415 30.0552 40.6593L30.0552 44.2932C30.0552 44.6861 30.2397 44.8825 30.6087 44.8825H31.3994L31.3994 46.9254H29.7389C29.2513 46.9254 28.8493 46.8075 28.533 46.5718C28.2168 46.3361 28.0586 46.0218 28.0586 45.629L28.0586 45.6093H27.683C27.6303 45.7665 27.5117 45.976 27.3272 46.2379C27.1427 46.4867 26.8528 46.7093 26.4574 46.9057C26.0621 47.1022 25.5218 47.2004 24.8365 47.2004ZM25.2714 45.1968C25.9698 45.1968 26.5365 45.0069 26.9714 44.6272C27.4195 44.2343 27.6435 43.7171 27.6435 43.0754L27.6435 42.879L25.133 42.879C24.6717 42.879 24.3093 42.9772 24.0458 43.1736C23.7822 43.37 23.6504 43.645 23.6504 43.9986C23.6504 44.3522 23.7888 44.6403 24.0655 44.8629C24.3423 45.0855 24.7442 45.1968 25.2714 45.1968ZM31.4414 46.9254L31.4414 37.1825L33.8926 37.1825L33.8926 38.2825H34.2484C34.3934 37.8897 34.6306 37.6016 34.96 37.4182C35.3027 37.2349 35.698 37.1432 36.1461 37.1432H37.3322L37.3322 39.3432H36.1066C35.474 39.3432 34.9535 39.5135 34.5449 39.854C34.1364 40.1813 33.9321 40.6921 33.9321 41.3861L33.9321 46.9254H31.4414ZM37.4999 46.9254L37.4999 37.1825L39.9906 37.1825L39.9906 46.9254H37.4999ZM38.7453 36.0432C38.2972 36.0432 37.915 35.8992 37.5987 35.6111C37.2956 35.323 37.1441 34.9432 37.1441 34.4718C37.1441 34.0004 37.2956 33.6206 37.5987 33.3325C37.915 33.0444 38.2972 32.9004 38.7453 32.9004C39.2065 32.9004 39.5887 33.0444 39.8918 33.3325C40.1949 33.6206 40.3465 34.0004 40.3465 34.4718C40.3465 34.9432 40.1949 35.323 39.8918 35.6111C39.5887 35.8992 39.2065 36.0432 38.7453 36.0432ZM46.1508 47.2004C44.4376 47.2004 43.0802 46.729 42.0786 45.7861C41.077 44.8302 40.5763 43.4682 40.5763 41.7004L40.5763 38.4004C40.5763 36.6325 41.077 35.2772 42.0786 34.3343C43.0802 33.3784 44.4376 32.9004 46.1508 32.9004C47.8508 32.9004 49.1621 33.3653 50.0846 34.295C51.0202 35.2117 51.4881 36.4754 51.4881 38.0861L51.4881 38.204L48.9183 38.204L48.9183 38.0075C48.9183 37.1956 48.6876 36.5278 48.2264 36.004C47.7783 35.4802 47.0864 35.2182 46.1508 35.2182C45.2283 35.2182 44.5035 35.4998 43.9763 36.0629C43.4492 36.626 43.1856 37.3921 43.1856 38.3611L43.1856 41.7397C43.1856 42.6956 43.4492 43.4617 43.9763 44.0379C44.5035 44.601 45.2283 44.8825 46.1508 44.8825C47.0864 44.8825 47.7783 44.6206 48.2264 44.0968C48.6876 43.5599 48.9183 42.8921 48.9183 42.0932L48.9183 41.7397L51.4881 41.7397L51.4881 42.0147C51.4881 43.6254 51.0202 44.8956 50.0846 45.8254C49.1621 46.7421 47.8508 47.2004 46.1508 47.2004ZM56.5794 47.2004C55.6041 47.2004 54.7278 47.004 53.9502 46.6111C53.1727 46.2182 52.5599 45.6486 52.1118 44.9022C51.6638 44.1557 51.4397 43.2587 51.4397 42.2111L51.4397 41.8968C51.4397 40.8492 51.6638 39.9522 52.1118 39.2057C52.5599 38.4593 53.1727 37.8897 53.9502 37.4968C54.7278 37.104 55.6041 36.9075 56.5794 36.9075C57.5546 36.9075 58.4309 37.104 59.2085 37.4968C59.986 37.8897 60.5988 38.4593 61.0469 39.2057C61.4949 39.9522 61.719 40.8492 61.719 41.8968L61.719 42.2111C61.719 43.2587 61.4949 44.1557 61.0469 44.9022C60.5988 45.6486 59.986 46.2182 59.2085 46.6111C58.4309 47.004 57.5546 47.2004 56.5794 47.2004ZM56.5794 45.0004C57.3437 45.0004 57.9763 44.7581 58.4771 44.2736C58.9778 43.776 59.2282 43.0688 59.2282 42.1522L59.2282 41.9557C59.2282 41.0391 58.9778 40.3385 58.4771 39.854C57.9895 39.3563 57.3569 39.1075 56.5794 39.1075C55.815 39.1075 55.1824 39.3563 54.6816 39.854C54.1809 40.3385 53.9305 41.0391 53.9305 41.9557L53.9305 42.1522C53.9305 43.0688 54.1809 43.776 54.6816 44.2736C55.1824 44.7581 55.815 45.0004 56.5794 45.0004ZM62.239 46.9254L62.239 37.1825L64.7297 37.1825L64.7297 46.9254H62.239ZM63.4843 36.0432C63.0363 36.0432 62.6541 35.8992 62.3378 35.6111C62.0347 35.323 61.8831 34.9432 61.8831 34.4718C61.8831 34.0004 62.0347 33.6206 62.3378 33.3325C62.6541 33.0444 63.0363 32.9004 63.4843 32.9004C63.9456 32.9004 64.3278 33.0444 64.6309 33.3325C64.934 33.6206 65.0855 34.0004 65.0855 34.4718C65.0855 34.9432 64.934 35.323 64.6309 35.6111C64.3278 35.8992 63.9456 36.0432 63.4843 36.0432ZM65.7107 46.9254L65.7107 37.1825L68.1619 37.1825L68.1619 38.4593H68.5177C68.6759 38.1188 68.9724 37.798 69.4073 37.4968C69.8422 37.1825 70.5011 37.0254 71.384 37.0254C72.1484 37.0254 72.8139 37.2022 73.3806 37.5557C73.9604 37.8962 74.4085 38.3742 74.7248 38.9897C75.0411 39.5921 75.1992 40.2992 75.1992 41.1111L75.1992 46.9254H72.7085L72.7085 41.3075C72.7085 40.5742 72.524 40.0242 72.155 39.6575C71.7992 39.2909 71.2852 39.1075 70.6131 39.1075C69.8487 39.1075 69.2557 39.3629 68.834 39.8736C68.4123 40.3712 68.2014 41.0718 68.2014 41.9754L68.2014 46.9254L65.7107 46.9254Z" stroke="#F7F7F7" stroke-width="1.4" mask="url(#path-6-outside-1_1442_4498)"/>
</g>
</g>
<rect x="0.8" y="0.8" width="78.4" height="78.4" rx="39.2" stroke="white" stroke-width="1.6"/>
<defs>
<filter id="filter0_ddi_1442_4498" x="-11.4374" y="18.3805" width="102.978" height="47.3137" filterUnits="userSpaceOnUse" color-interpolation-filters="sRGB">
<feFlood flood-opacity="0" result="BackgroundImageFix"/>
<feColorMatrix in="SourceAlpha" type="matrix" values="0 0 0 0 0 0 0 0 0 0 0 0 0 0 0 0 0 0 127 0" result="hardAlpha"/>
<feOffset dy="0.479388"/>
<feGaussianBlur stdDeviation="0.599235"/>
<feColorMatrix type="matrix" values="0 0 0 0 0 0 0 0 0 0 0 0 0 0 0 0 0 0 0.14 0"/>
<feBlend mode="normal" in2="BackgroundImageFix" result="effect1_dropShadow_1442_4498"/>
<feColorMatrix in="SourceAlpha" type="matrix" values="0 0 0 0 0 0 0 0 0 0 0 0 0 0 0 0 0 0 127 0" result="hardAlpha"/>
<feOffset dy="2.15725"/>
<feGaussianBlur stdDeviation="1.31832"/>
<feColorMatrix type="matrix" values="0 0 0 0 0 0 0 0 0 0 0 0 0 0 0 0 0 0 0.34 0"/>
<feBlend mode="normal" in2="effect1_dropShadow_1442_4498" result="effect2_dropShadow_1442_4498"/>
<feBlend mode="normal" in="SourceGraphic" in2="effect2_dropShadow_1442_4498" result="shape"/>
<feColorMatrix in="SourceAlpha" type="matrix" values="0 0 0 0 0 0 0 0 0 0 0 0 0 0 0 0 0 0 127 0" result="hardAlpha"/>
<feOffset dy="-0.239694"/>
<feGaussianBlur stdDeviation="0.479388"/>
<feComposite in2="hardAlpha" operator="arithmetic" k2="-1" k3="1"/>
<feColorMatrix type="matrix" values="0 0 0 0 1 0 0 0 0 1 0 0 0 0 1 0 0 0 0.55 0"/>
<feBlend mode="normal" in2="shape" result="effect3_innerShadow_1442_4498"/>
</filter>
<filter id="filter1_ddi_1442_4498" x="3.36336" y="31.4821" width="75.1717" height="21.2122" filterUnits="userSpaceOnUse" color-interpolation-filters="sRGB">
<feFlood flood-opacity="0" result="BackgroundImageFix"/>
<feColorMatrix in="SourceAlpha" type="matrix" values="0 0 0 0 0 0 0 0 0 0 0 0 0 0 0 0 0 0 127 0" result="hardAlpha"/>
<feOffset dy="0.479388"/>
<feGaussianBlur stdDeviation="0.599235"/>
<feColorMatrix type="matrix" values="0 0 0 0 0 0 0 0 0 0 0 0 0 0 0 0 0 0 0.14 0"/>
<feBlend mode="normal" in2="BackgroundImageFix" result="effect1_dropShadow_1442_4498"/>
<feColorMatrix in="SourceAlpha" type="matrix" values="0 0 0 0 0 0 0 0 0 0 0 0 0 0 0 0 0 0 127 0" result="hardAlpha"/>
<feOffset dy="2.15725"/>
<feGaussianBlur stdDeviation="1.31832"/>
<feColorMatrix type="matrix" values="0 0 0 0 0 0 0 0 0 0 0 0 0 0 0 0 0 0 0.34 0"/>
<feBlend mode="normal" in2="effect1_dropShadow_1442_4498" result="effect2_dropShadow_1442_4498"/>
<feBlend mode="normal" in="SourceGraphic" in2="effect2_dropShadow_1442_4498" result="shape"/>
<feColorMatrix in="SourceAlpha" type="matrix" values="0 0 0 0 0 0 0 0 0 0 0 0 0 0 0 0 0 0 127 0" result="hardAlpha"/>
<feOffset dy="-0.239694"/>
<feGaussianBlur stdDeviation="0.479388"/>
<feComposite in2="hardAlpha" operator="arithmetic" k2="-1" k3="1"/>
<feColorMatrix type="matrix" values="0 0 0 0 1 0 0 0 0 1 0 0 0 0 1 0 0 0 0.55 0"/>
<feBlend mode="normal" in2="shape" result="effect3_innerShadow_1442_4498"/>
</filter>
<clipPath id="clip0_1442_4498">
<rect width="80" height="80" rx="40" fill="white"/>
</clipPath>
</defs>
</svg>
