<svg width="54" height="36" viewBox="0 0 54 36" fill="none" xmlns="http://www.w3.org/2000/svg">
<path d="M10.8452 27.7654V29.2587H12.3385H17.3646H18.8579V27.7654V18.098L21.3335 28.1234L21.6139 29.2587H22.7833H31.3434H32.5128L32.7932 28.1234L35.2688 18.098V27.7654V29.2587H36.7621H41.7882H43.2815V27.7654V5.61426V4.12092H41.7882H32.168H30.9976L30.7179 5.25735L27.0633 20.105L23.4088 5.25735L23.1291 4.12092H21.9587H12.3385H10.8452V5.61426V27.7654Z" fill="#FBFBFB" stroke="black" stroke-width="2.98667"/>
<path d="M26.0917 31.7602L27.1053 33.1053L28.1127 31.7556L49.0123 3.75557L50.5191 1.73685L48 1.73685L6 1.73684L3.46643 1.73684L4.99121 3.76021L26.0917 31.7602Z" fill="#7CBB58" stroke="black" stroke-width="2.52632"/>
<g clip-path="url(#clip0_46_845)">
<path d="M10.8234 27.7654V29.2587H12.3168H17.3503H18.8436V27.7654V18.0804L21.3274 28.1239L21.6081 29.2587H22.7771H31.3498H32.5188L32.7995 28.1239L35.2832 18.0804V27.7654V29.2587H36.7766H41.8101H43.3034V27.7654V5.61426V4.12092H41.8101H32.1756H31.0057L30.7257 5.25685L27.0634 20.1137L23.4012 5.25685L23.1212 4.12092H21.9513H12.3168H10.8234V5.61426V27.7654Z" fill="white" stroke="black" stroke-width="2.98667"/>
</g>
<defs>
<clipPath id="clip0_46_845">
<rect width="14.787" height="22.1511" fill="white" transform="translate(27.0012 5.61426)"/>
</clipPath>
</defs>
</svg>
